<svg width="136" height="134" viewBox="0 0 136 134" fill="none" xmlns="http://www.w3.org/2000/svg">
<path d="M53.0089 130.669C46.6785 129.234 40.5988 126.858 34.9719 123.622M82.1007 3C96.5605 6.30244 109.471 14.4163 118.717 26.0131C127.964 37.61 133 52.0026 133 66.8347C133 81.6668 127.964 96.0595 118.717 107.656C109.471 119.253 96.5605 127.367 82.1007 130.669M13.5822 103.876C9.61479 98.1119 6.60157 91.7466 4.65823 85.0244M3 55.9253C4.16367 49.016 6.40374 42.4703 9.54566 36.4701L10.7748 34.2519M30.5136 12.8621C37.3186 8.17762 44.9528 4.83072 53.0089 3" stroke="black" stroke-width="6" stroke-linecap="round" stroke-linejoin="round"/>
<path d="M45.7422 66.834L60.2881 81.3799L89.3799 52.2881" stroke="#84D65A" stroke-width="6" stroke-linecap="round" stroke-linejoin="round"/>
</svg>
