<svg width="30" height="30" viewBox="0 0 30 30" fill="none" xmlns="http://www.w3.org/2000/svg">
<g clip-path="url(#clip0_1462_10097)">
<path d="M17.8951 11.3713C17.7853 11.0607 17.6159 10.7784 17.4007 10.5379C16.943 10.0265 16.2777 9.70459 15.5373 9.70459H13.6022C12.3697 9.70459 11.3706 10.7037 11.3706 11.9362C11.3706 12.9849 12.1008 13.8921 13.1253 14.1162L16.0715 14.7607C17.2193 15.0118 18.0373 16.0288 18.0373 17.2037C18.0373 18.5844 16.918 19.7046 15.5373 19.7046H13.8706C12.7821 19.7046 11.8561 19.009 11.5129 18.038" stroke="black" stroke-width="2" stroke-linecap="round" stroke-linejoin="round"/>
<path d="M14.7041 9.70492V7.2049" stroke="black" stroke-width="2" stroke-linecap="round" stroke-linejoin="round"/>
<path d="M14.7041 22.2047V19.7048" stroke="black" stroke-width="2" stroke-linecap="round" stroke-linejoin="round"/>
<path d="M4.28223 28.9253V23.5682H9.63937" stroke="black" stroke-width="2" stroke-linecap="round" stroke-linejoin="round"/>
<path d="M28.6885 12.437C30.0213 19.5255 25.6835 26.553 18.6013 28.4505C13.1809 29.9029 7.65018 27.9492 4.28174 23.9014" stroke="black" stroke-width="2" stroke-linecap="round" stroke-linejoin="round"/>
<path d="M1.31126 17.563C-0.021689 10.4745 4.31613 3.44713 11.3983 1.54947C16.8184 0.0971605 22.3488 2.05053 25.7174 6.0978" stroke="black" stroke-width="2" stroke-linecap="round" stroke-linejoin="round"/>
<path d="M25.7176 1.07507V6.43222H20.3604" stroke="black" stroke-width="2" stroke-linecap="round" stroke-linejoin="round"/>
</g>
<defs>
<clipPath id="clip0_1462_10097">
<rect width="30" height="30" fill="white"/>
</clipPath>
</defs>
</svg>
