<svg width="30" height="30" viewBox="0 0 30 30" fill="none" xmlns="http://www.w3.org/2000/svg">
<path d="M25.1116 26.7857C25.1116 27.354 24.8857 27.8991 24.4839 28.3009C24.0819 28.7027 23.537 28.9286 22.9687 28.9286H3.6829C3.11457 28.9286 2.56953 28.7027 2.16766 28.3009C1.7658 27.8991 1.54004 27.354 1.54004 26.7857V3.21427C1.54004 2.64594 1.7658 2.1009 2.16766 1.69904C2.56953 1.29718 3.11457 1.07141 3.6829 1.07141H15.6524C16.2208 1.07141 16.7658 1.29718 17.1677 1.69904L24.4839 9.01522C24.8857 9.41707 25.1116 9.96212 25.1116 10.5304V26.7857Z" stroke="black" stroke-width="2" stroke-linecap="round" stroke-linejoin="round"/>
<path d="M14.5229 13.6607H19.8801" stroke="black" stroke-width="2" stroke-linecap="round" stroke-linejoin="round"/>
<path d="M14.5229 21.0938H19.8801" stroke="black" stroke-width="2" stroke-linecap="round" stroke-linejoin="round"/>
<path d="M6.23584 20.9723L8.03132 22.7678L11.0238 18.5784" stroke="black" stroke-width="2" stroke-linecap="round" stroke-linejoin="round"/>
<path d="M6.23584 13.4054L8.03132 15.2009L11.0238 11.0114" stroke="black" stroke-width="2" stroke-linecap="round" stroke-linejoin="round"/>
</svg>
