<svg width="14" height="14" viewBox="0 0 14 14" fill="none" xmlns="http://www.w3.org/2000/svg">
<g clip-path="url(#clip0_2323_11970)">
<path d="M12.7527 13.3305C11.9063 12.605 10.4539 11.4407 8.9155 10.1192M8.9155 10.1192C7.46644 8.87444 5.94106 7.49028 4.77385 6.20202M8.9155 10.1192L6.16654 12.7064C4.91353 13.8857 2.91756 13.7311 1.86115 12.3728C0.906286 11.1452 1.08152 9.38445 2.25961 8.36904L4.77385 6.20202M8.9155 10.1192L10.6064 8.52778M4.77385 6.20202C3.59459 4.90046 2.78092 3.69681 2.78092 2.83378C2.78092 0.796325 4.28348 0.5 5.16329 0.5C6.45045 0.5 7.5044 1.25937 7.5044 2.83386C7.5044 3.88353 5.24319 5.79749 5.24319 5.79749L4.77385 6.20202Z" stroke="black" stroke-linecap="round" stroke-linejoin="round"/>
</g>
<defs>
<clipPath id="clip0_2323_11970">
<rect width="14" height="14" fill="white"/>
</clipPath>
</defs>
</svg>
