<svg width="14" height="14" viewBox="0 0 14 14" fill="none" xmlns="http://www.w3.org/2000/svg">
<path d="M5 10.43C4.58149 10.7886 4.05107 10.9902 3.5 11C3.09641 11.0387 2.68925 10.9877 2.30769 10.8506C1.92612 10.7135 1.57958 10.4938 1.29289 10.2071C1.0062 9.92042 0.786451 9.57388 0.649375 9.19231C0.512299 8.81075 0.5 8 0.5 8C0.5 8 0.512299 7.18925 0.649375 6.80769C0.786451 6.42612 1.0062 6.07958 1.29289 5.79289C1.57958 5.5062 1.92612 5.28645 2.30769 5.14937C2.68925 5.0123 3.09641 4.96129 3.5 5C6.25 5 7.75 11 10.5 11C10.9036 11.0387 11.3107 10.9877 11.6923 10.8506C12.0739 10.7135 12.4204 10.4938 12.7071 10.2071C12.9938 9.92042 13.2135 9.57388 13.3506 9.19231C13.4877 8.81075 13.5 8 13.5 8C13.5 8 13.4877 7.18925 13.3506 6.80769C13.2135 6.42612 12.9938 6.07958 12.7071 5.79289C12.4204 5.5062 12.0739 5.28645 11.6923 5.14937C11.3107 5.0123 10.9036 4.96129 10.5 5H8.5L10.5 3" stroke="black" stroke-linecap="round" stroke-linejoin="round"/>
</svg>
