<svg width="14" height="14" viewBox="0 0 14 14" fill="none" xmlns="http://www.w3.org/2000/svg">
<g clip-path="url(#clip0_2323_12056)">
<path d="M7 11.6426H13.5" stroke="black" stroke-linecap="round" stroke-linejoin="round"/>
<path d="M11.6426 9.78516L13.4998 11.6423L11.6426 13.4994" stroke="black" stroke-linecap="round" stroke-linejoin="round"/>
<path d="M4.67816 3.286C5.44749 3.286 6.07116 2.66233 6.07116 1.893C6.07116 1.12367 5.44749 0.5 4.67816 0.5C3.90882 0.5 3.28516 1.12367 3.28516 1.893C3.28516 2.66233 3.90882 3.286 4.67816 3.286Z" stroke="black" stroke-linecap="round" stroke-linejoin="round"/>
<path d="M8.393 7.92858C9.16233 7.92858 9.786 7.30491 9.786 6.53558C9.786 5.76625 9.16233 5.14258 8.393 5.14258C7.62367 5.14258 7 5.76625 7 6.53558C7 7.30491 7.62367 7.92858 8.393 7.92858Z" stroke="black" stroke-linecap="round" stroke-linejoin="round"/>
<path d="M5.60784 13.036C6.37718 13.036 7.00084 12.4123 7.00084 11.643C7.00084 10.8737 6.37718 10.25 5.60784 10.25C4.83851 10.25 4.21484 10.8737 4.21484 11.643C4.21484 12.4123 4.83851 13.036 5.60784 13.036Z" stroke="black" stroke-linecap="round" stroke-linejoin="round"/>
<path d="M7.00003 6.53613H3.05358C1.64328 6.53613 0.5 7.67941 0.5 9.08971C0.5 10.5 1.64328 11.6433 3.05358 11.6433H4.2143" stroke="black" stroke-linecap="round" stroke-linejoin="round"/>
<path d="M9.78657 6.53642H11.1795C12.4616 6.53642 13.5009 5.49708 13.5009 4.21498C13.5009 2.93289 12.4616 1.89355 11.1795 1.89355H6.07227" stroke="black" stroke-linecap="round" stroke-linejoin="round"/>
<path d="M3.28573 1.89355H0.5" stroke="black" stroke-linecap="round" stroke-linejoin="round"/>
</g>
<defs>
<clipPath id="clip0_2323_12056">
<rect width="14" height="14" fill="white"/>
</clipPath>
</defs>
</svg>
