<svg width="14" height="14" viewBox="0 0 14 14" fill="none" xmlns="http://www.w3.org/2000/svg">
<g clip-path="url(#clip0_2323_12184)">
<path d="M7 13.5C10.5899 13.5 13.5 10.5899 13.5 7C13.5 3.41015 10.5899 0.5 7 0.5C3.41015 0.5 0.5 3.41015 0.5 7C0.5 10.5899 3.41015 13.5 7 13.5Z" stroke="black" stroke-linecap="round" stroke-linejoin="round"/>
<path d="M6.9908 5.59683C7.83248 5.59683 8.5148 4.91451 8.5148 4.07283C8.5148 3.23115 7.83248 2.54883 6.9908 2.54883C6.14912 2.54883 5.4668 3.23115 5.4668 4.07283C5.4668 4.91451 6.14912 5.59683 6.9908 5.59683Z" stroke="black" stroke-linecap="round" stroke-linejoin="round"/>
<path d="M8.30061 8.85019L7.97536 11.4522H6.9996H6.02352L5.69827 8.85019H5.04792C4.86829 8.85019 4.72266 8.70457 4.72266 8.52494V7.87442C4.72266 6.61699 5.74193 5.59766 6.99936 5.59766C8.25678 5.59766 9.27621 6.61699 9.27621 7.87442V8.52494C9.27621 8.70457 9.13059 8.85019 8.95096 8.85019H8.30061Z" stroke="black" stroke-linecap="round" stroke-linejoin="round"/>
</g>
<defs>
<clipPath id="clip0_2323_12184">
<rect width="14" height="14" fill="white"/>
</clipPath>
</defs>
</svg>
