<svg width="14" height="14" viewBox="0 0 14 14" fill="none" xmlns="http://www.w3.org/2000/svg">
<g clip-path="url(#clip0_2323_12216)">
<path d="M5 13.5H7" stroke="black" stroke-linecap="round" stroke-linejoin="round"/>
<path d="M4.48 2.2998C3.74638 2.60118 3.11892 3.11385 2.67734 3.77266C2.23575 4.43147 1.99999 5.20669 2 5.9998V9.4998C2 9.89762 1.84196 10.2792 1.56066 10.5605C1.27936 10.8418 0.897825 10.9998 0.5 10.9998H11.5C11.1022 10.9998 10.7206 10.8418 10.4393 10.5605C10.158 10.2792 10 9.89762 10 9.4998" stroke="black" stroke-linecap="round" stroke-linejoin="round"/>
<path d="M10.25 7C8.45507 7 7 5.54493 7 3.75C7 1.95507 8.45507 0.5 10.25 0.5C12.0449 0.5 13.5 1.95507 13.5 3.75C13.5 5.54493 12.0449 7 10.25 7Z" stroke="black" stroke-linecap="round" stroke-linejoin="round"/>
<path d="M12.5492 6.0502L7.94922 1.4502" stroke="black" stroke-linecap="round" stroke-linejoin="round"/>
</g>
<defs>
<clipPath id="clip0_2323_12216">
<rect width="14" height="14" fill="white"/>
</clipPath>
</defs>
</svg>
