<svg width="14" height="14" viewBox="0 0 14 14" fill="none" xmlns="http://www.w3.org/2000/svg">
<g clip-path="url(#clip0_2323_12252)">
<path d="M1.5 2C1.23478 2 0.98043 2.10536 0.792893 2.29289C0.605357 2.48043 0.5 2.73478 0.5 3V12.5C0.5 12.7652 0.605357 13.0196 0.792893 13.2071C0.98043 13.3946 1.23478 13.5 1.5 13.5H12.5C12.7652 13.5 13.0196 13.3946 13.2071 13.2071C13.3946 13.0196 13.5 12.7652 13.5 12.5V3C13.5 2.73478 13.3946 2.48043 13.2071 2.29289C13.0196 2.10536 12.7652 2 12.5 2H10.5" stroke="black" stroke-linecap="round" stroke-linejoin="round"/>
<path d="M3.5 0.5V3.5" stroke="black" stroke-linecap="round" stroke-linejoin="round"/>
<path d="M10.5 0.5V3.5" stroke="black" stroke-linecap="round" stroke-linejoin="round"/>
<path d="M3.5 2H8.5" stroke="black" stroke-linecap="round" stroke-linejoin="round"/>
<path d="M7.24921 4.65241L8.08582 6.33537C8.10453 6.37793 8.1342 6.41477 8.1718 6.44211C8.2094 6.46946 8.25359 6.48634 8.29984 6.49102L10.1579 6.77313C10.211 6.78004 10.2611 6.80194 10.3022 6.83625C10.3434 6.87057 10.3739 6.91588 10.3902 6.9669C10.4065 7.01792 10.408 7.07254 10.3944 7.12436C10.3809 7.17618 10.3528 7.22307 10.3136 7.25953L8.9419 8.5631C8.92144 8.60211 8.91076 8.64551 8.91076 8.68956C8.91076 8.73362 8.92144 8.77701 8.9419 8.81603L9.20455 10.6644C9.21576 10.7178 9.21123 10.7733 9.1915 10.8242C9.17178 10.8751 9.13771 10.9192 9.09343 10.9511C9.04915 10.983 8.99656 11.0014 8.94203 11.0041C8.88751 11.0067 8.83339 10.9934 8.78625 10.9659L7.13247 10.0904C7.08967 10.0711 7.04325 10.0611 6.99628 10.0611C6.94931 10.0611 6.90289 10.0711 6.86009 10.0904L5.20631 10.9659C5.15917 10.9934 5.10505 11.0067 5.05053 11.0041C4.996 11.0014 4.94341 10.983 4.89913 10.9511C4.85485 10.9192 4.82078 10.8751 4.80106 10.8242C4.78133 10.7733 4.7768 10.7178 4.78801 10.6644L5.0993 8.81603C5.11269 8.77313 5.11525 8.72758 5.10677 8.68345C5.09828 8.63932 5.07901 8.59797 5.05066 8.5631L3.679 7.24981C3.64262 7.21295 3.61708 7.16679 3.60519 7.11639C3.5933 7.06598 3.59552 7.01328 3.61159 6.96404C3.62767 6.91481 3.65698 6.87096 3.69633 6.83728C3.73568 6.80361 3.78353 6.78141 3.83465 6.77313L5.69272 6.50074C5.73897 6.49606 5.78316 6.47919 5.82076 6.45184C5.85836 6.4245 5.88803 6.38766 5.90673 6.34509L6.74335 4.66214C6.76574 4.6145 6.801 4.57407 6.84517 4.54542C6.88933 4.51678 6.94063 4.50106 6.99326 4.50005C7.04589 4.49904 7.09775 4.51277 7.14298 4.5397C7.18821 4.56662 7.22501 4.60566 7.24921 4.65241Z" stroke="black" stroke-linecap="round" stroke-linejoin="round"/>
</g>
<defs>
<clipPath id="clip0_2323_12252">
<rect width="14" height="14" fill="white"/>
</clipPath>
</defs>
</svg>
