<svg width="14" height="14" viewBox="0 0 14 14" fill="none" xmlns="http://www.w3.org/2000/svg">
<g clip-path="url(#clip0_2323_12316)">
<path d="M12.417 1.58358C12.0923 1.25603 11.706 0.996028 11.2803 0.818593C10.8546 0.641159 10.3979 0.549805 9.93677 0.549805C9.47557 0.549805 9.01894 0.641159 8.59324 0.818593C8.16754 0.996028 7.7812 1.25603 7.45653 1.58358L2.90283 6.13729C2.45165 6.58774 2.15705 7.17115 2.06239 7.80162C1.96773 8.4321 2.07802 9.0763 2.37702 9.63938L0.839274 11.1771C0.654496 11.363 0.550781 11.6145 0.550781 11.8766C0.550781 12.1386 0.654496 12.3901 0.839274 12.576L1.42461 13.1613C1.61049 13.3461 1.86194 13.4498 2.12403 13.4498C2.38613 13.4498 2.63758 13.3461 2.82346 13.1613L4.3612 11.6236C4.92428 11.9226 5.56849 12.0329 6.19896 11.9382C6.82943 11.8435 7.41285 11.5489 7.86329 11.0978L12.417 6.54405C12.7445 6.21938 13.0045 5.83304 13.182 5.40734C13.3594 4.98164 13.4507 4.52501 13.4507 4.06382C13.4507 3.60262 13.3594 3.14599 13.182 2.72029C13.0045 2.29459 12.7445 1.90825 12.417 1.58358Z" stroke="black" stroke-linecap="round" stroke-linejoin="round"/>
<path d="M4.51953 1.54395L12.4563 9.48069" stroke="black" stroke-linecap="round" stroke-linejoin="round"/>
</g>
<defs>
<clipPath id="clip0_2323_12316">
<rect width="14" height="14" fill="white"/>
</clipPath>
</defs>
</svg>
