<svg width="14" height="14" viewBox="0 0 14 14" fill="none" xmlns="http://www.w3.org/2000/svg">
<g clip-path="url(#clip0_2323_12341)">
<path d="M1.5 0.5H4.5C4.76522 0.5 5.01957 0.605357 5.20711 0.792893C5.39464 0.98043 5.5 1.23478 5.5 1.5V11C5.5 11.663 5.23661 12.2989 4.76777 12.7678C4.29893 13.2366 3.66304 13.5 3 13.5C2.6717 13.5 2.34661 13.4353 2.04329 13.3097C1.73998 13.1841 1.46438 12.9999 1.23223 12.7678C0.763392 12.2989 0.5 11.663 0.5 11V1.5C0.5 1.23478 0.605357 0.98043 0.792893 0.792893C0.98043 0.605357 1.23478 0.5 1.5 0.5Z" stroke="black" stroke-linecap="round" stroke-linejoin="round"/>
<path d="M5.49953 5.00024L8.99953 1.48024C9.18689 1.29399 9.44034 1.18945 9.70453 1.18945C9.96872 1.18945 10.2222 1.29399 10.4095 1.48024L12.5195 3.60024C12.7058 3.7876 12.8103 4.04106 12.8103 4.30524C12.8103 4.56943 12.7058 4.82288 12.5195 5.01024L4.76953 12.7702" stroke="black" stroke-linecap="round" stroke-linejoin="round"/>
<path d="M9 8.5H12.5C12.7652 8.5 13.0196 8.60536 13.2071 8.79289C13.3946 8.98043 13.5 9.23478 13.5 9.5V12.5C13.5 12.7652 13.3946 13.0196 13.2071 13.2071C13.0196 13.3946 12.7652 13.5 12.5 13.5H3" stroke="black" stroke-linecap="round" stroke-linejoin="round"/>
<path d="M0.5 4.5H5.5" stroke="black" stroke-linecap="round" stroke-linejoin="round"/>
<path d="M0.5 8.5H5.5" stroke="black" stroke-linecap="round" stroke-linejoin="round"/>
</g>
<defs>
<clipPath id="clip0_2323_12341">
<rect width="14" height="14" fill="white"/>
</clipPath>
</defs>
</svg>
