<svg width="14" height="14" viewBox="0 0 14 14" fill="none" xmlns="http://www.w3.org/2000/svg">
<g clip-path="url(#clip0_2323_12336)">
<path d="M7 13.5C10.5899 13.5 13.5 10.5899 13.5 7C13.5 3.41015 10.5899 0.5 7 0.5C3.41015 0.5 0.5 3.41015 0.5 7C0.5 10.5899 3.41015 13.5 7 13.5Z" stroke="black" stroke-linecap="round" stroke-linejoin="round"/>
<path d="M6.0469 5.59942C5.90275 5.1916 5.51382 4.89941 5.05664 4.89941H4.35664C3.77674 4.89941 3.30664 5.36951 3.30664 5.94941V8.04941C3.30664 8.62931 3.77674 9.09941 4.35664 9.09941H5.05664C5.51381 9.09941 5.90275 8.80723 6.04689 8.39942" stroke="black" stroke-linecap="round" stroke-linejoin="round"/>
<path d="M10.6934 5.59942C10.5492 5.1916 10.1603 4.89941 9.70312 4.89941H9.00313C8.42323 4.89941 7.95312 5.36951 7.95312 5.94941V8.04941C7.95312 8.62931 8.42323 9.09941 9.00313 9.09941H9.70312C10.1603 9.09941 10.5492 8.80723 10.6934 8.39942" stroke="black" stroke-linecap="round" stroke-linejoin="round"/>
</g>
<defs>
<clipPath id="clip0_2323_12336">
<rect width="14" height="14" fill="white"/>
</clipPath>
</defs>
</svg>
