<svg width="14" height="14" viewBox="0 0 14 14" fill="none" xmlns="http://www.w3.org/2000/svg">
<g clip-path="url(#clip0_2323_12358)">
<path d="M7 13.5C10.5899 13.5 13.5 10.5899 13.5 7C13.5 3.41015 10.5899 0.5 7 0.5C3.41015 0.5 0.5 3.41015 0.5 7C0.5 10.5899 3.41015 13.5 7 13.5Z" stroke="black" stroke-linecap="round" stroke-linejoin="round"/>
<path d="M9.45919 4.52232C8.10103 4.52232 7.00003 5.62332 7.00003 6.98148C7.00003 8.33963 8.10103 9.44063 9.45919 9.44063C9.70948 9.44063 9.90063 9.74153 9.71713 9.91176C9.00412 10.5732 8.0493 10.9776 7.00003 10.9776C4.79303 10.9776 3.00391 9.18847 3.00391 6.98148C3.00391 4.77448 4.79303 2.98535 7.00003 2.98535C8.0493 2.98535 9.00412 3.38975 9.71713 4.0512C9.90063 4.22142 9.70948 4.52232 9.45919 4.52232Z" stroke="black" stroke-linecap="round" stroke-linejoin="round"/>
</g>
<defs>
<clipPath id="clip0_2323_12358">
<rect width="14" height="14" fill="white"/>
</clipPath>
</defs>
</svg>
