<svg width="14" height="14" viewBox="0 0 14 14" fill="none" xmlns="http://www.w3.org/2000/svg">
<g clip-path="url(#clip0_2323_12383)">
<path d="M13.5 13.499L0.5 0.499023" stroke="black" stroke-linecap="round" stroke-linejoin="round"/>
<path d="M10.4993 10.4951H12.9993C12.5574 10.4951 12.2423 10.3195 11.9299 10.0071C11.6174 9.69465 11.4419 9.2709 11.4419 8.82905V4.9417C11.4419 3.76343 10.9738 2.63342 10.1407 1.80025C9.30749 0.967091 8.17747 0.499023 6.9992 0.499023C5.82092 0.499023 4.69091 0.967091 3.85775 1.80025C3.5147 2.1433 3.23355 2.53667 3.02148 2.96302" stroke="black" stroke-linecap="round" stroke-linejoin="round"/>
<path d="M6 13.501H8" stroke="black" stroke-linecap="round" stroke-linejoin="round"/>
<path d="M2.5573 5.49902V8.82905C2.5573 9.2709 2.38178 9.69465 2.06934 10.0071C1.75691 10.3195 1.44185 10.4951 1 10.4951H7.5" stroke="black" stroke-linecap="round" stroke-linejoin="round"/>
</g>
<defs>
<clipPath id="clip0_2323_12383">
<rect width="14" height="14" fill="white"/>
</clipPath>
</defs>
</svg>
