<svg width="14" height="14" viewBox="0 0 14 14" fill="none" xmlns="http://www.w3.org/2000/svg">
<path d="M7 13.3902C7.65661 13.3902 8.30679 13.2609 8.91342 13.0096C9.52004 12.7584 10.0712 12.3901 10.5355 11.9258C10.9998 11.4615 11.3681 10.9103 11.6194 10.3036C11.8707 9.69706 12 9.04688 12 8.39027V5.61027C12.0001 4.38195 11.548 3.19659 10.73 2.28027" stroke="black" stroke-linecap="round" stroke-linejoin="round"/>
<path d="M2 6.71973V8.38973C1.99967 9.37402 2.28985 10.3366 2.8342 11.1566C3.37854 11.9767 4.15282 12.6179 5.06 12.9998" stroke="black" stroke-linecap="round" stroke-linejoin="round"/>
<path d="M9.49961 1.28021C8.35121 0.617202 6.98648 0.437529 5.70561 0.780719C4.42475 1.1239 3.33267 1.96184 2.66961 3.11021C2.39658 3.58174 2.20395 4.09543 2.09961 4.63021" stroke="black" stroke-linecap="round" stroke-linejoin="round"/>
<path d="M6.48047 3.51041C6.84827 3.43406 7.22851 3.44123 7.59317 3.53139C7.95783 3.62156 8.2976 3.79243 8.58743 4.03139C8.87726 4.27036 9.10976 4.57133 9.26778 4.91211C9.4258 5.2529 9.50532 5.6248 9.50047 6.00041V7.61041" stroke="black" stroke-linecap="round" stroke-linejoin="round"/>
<path d="M8.86032 9.71C8.52007 10.089 8.07218 10.355 7.57659 10.4725C7.081 10.59 6.56135 10.5533 6.08719 10.3673C5.61304 10.1813 5.20699 9.85498 4.92339 9.43192C4.6398 9.00885 4.49219 8.50926 4.50032 8V6C4.49842 5.65655 4.56647 5.3163 4.70032 5" stroke="black" stroke-linecap="round" stroke-linejoin="round"/>
<path d="M7 6.11035V7.78035" stroke="black" stroke-linecap="round" stroke-linejoin="round"/>
</svg>
