<svg width="14" height="14" viewBox="0 0 14 14" fill="none" xmlns="http://www.w3.org/2000/svg">
<path d="M3.90034 13.4072V10.9433C2.59637 10.4908 1.7207 8.97223 1.7207 7.18913C1.7207 6.12582 1.9598 5.01465 3.14044 5.01465H6.13277C6.74645 5.01465 7.24371 5.51213 7.24371 6.12582C7.24371 6.61528 6.92343 7.0471 6.45503 7.18916L4.74426 7.708C5.61952 7.708 6.69311 8.53812 6.67006 9.61332" stroke="black" stroke-linecap="round" stroke-linejoin="round"/>
<path d="M9.81445 13.4076V10.9432C9.81445 10.9432 10.4016 10.6497 11.015 10.0626C12.1964 8.93198 12.3504 7.14399 12.0308 5.54028C11.9242 5.00553 11.7718 4.4637 11.5538 4.00781" stroke="black" stroke-linecap="round" stroke-linejoin="round"/>
<path d="M2.66797 4.94203V3.05649C2.66797 2.24001 3.32986 1.57812 4.14634 1.57812C4.96282 1.57812 5.62471 2.24001 5.62471 3.05649V4.94203" stroke="black" stroke-linecap="round" stroke-linejoin="round"/>
<path d="M5.625 4.55357V2.07206C5.625 1.25507 6.2873 0.592773 7.10429 0.592773C7.92127 0.592773 8.58357 1.25507 8.58357 2.07206V4.55357C8.58357 5.33182 7.9826 5.9697 7.21942 6.02844" stroke="black" stroke-linecap="round" stroke-linejoin="round"/>
<path d="M8.58203 3.05704C8.58203 2.24027 9.24416 1.57812 10.0609 1.57812C10.8777 1.57812 11.5398 2.24027 11.5398 3.05704V4.32634C11.5398 5.14312 10.8777 5.80525 10.0609 5.80525C9.24416 5.80525 8.58203 5.14312 8.58203 4.32634V3.05704Z" stroke="black" stroke-linecap="round" stroke-linejoin="round"/>
</svg>
