<svg width="14" height="14" viewBox="0 0 14 14" fill="none" xmlns="http://www.w3.org/2000/svg">
<g clip-path="url(#clip0_2323_12571)">
<path d="M0.5 12.2494V1.74945C0.5 1.48423 0.605357 1.22988 0.792893 1.04234C0.98043 0.854805 1.23478 0.749448 1.5 0.749448H5.19C5.41843 0.742793 5.64226 0.814581 5.82421 0.952862C6.00615 1.09114 6.13525 1.28757 6.19 1.50945L6.5 2.74945H12.5C12.7652 2.74945 13.0196 2.8548 13.2071 3.04234C13.3946 3.22988 13.5 3.48423 13.5 3.74945V12.2494C13.5 12.5147 13.3946 12.769 13.2071 12.9565C13.0196 13.1441 12.7652 13.2494 12.5 13.2494H1.5C1.23478 13.2494 0.98043 13.1441 0.792893 12.9565C0.605357 12.769 0.5 12.5147 0.5 12.2494Z" stroke="black" stroke-linecap="round" stroke-linejoin="round"/>
<path d="M4.5 9L6 10L9 6" stroke="black" stroke-linecap="round" stroke-linejoin="round"/>
</g>
<defs>
<clipPath id="clip0_2323_12571">
<rect width="14" height="14" fill="white"/>
</clipPath>
</defs>
</svg>
