<svg width="14" height="14" viewBox="0 0 14 14" fill="none" xmlns="http://www.w3.org/2000/svg">
<path d="M13.4375 8.94525V4.65625C13.4375 3.55168 12.5421 2.65625 11.4375 2.65625L2.5625 2.65625C1.45793 2.65625 0.5625 3.55168 0.5625 4.65625V8.94525C0.5625 10.0498 1.45793 10.9452 2.5625 10.9452H11.4375C12.5421 10.9452 13.4375 10.0498 13.4375 8.94525Z" stroke="black" stroke-linecap="round" stroke-linejoin="round"/>
<path d="M6 5.0459H7.75528M7.75528 8.55644H6" stroke="black" stroke-linecap="round" stroke-linejoin="round"/>
<path d="M6.87695 5.0459V8.55644" stroke="black" stroke-linecap="round" stroke-linejoin="round"/>
<path d="M3.75764 7.09372H4.63528V7.67881C4.63528 8.16351 4.24235 8.55644 3.75764 8.55644H3.17255C2.68785 8.55644 2.29492 8.16351 2.29492 7.67881V5.92353C2.29492 5.43883 2.68785 5.0459 3.17255 5.0459H3.75764C4.13977 5.0459 4.46486 5.29012 4.58534 5.63099" stroke="black" stroke-linecap="round" stroke-linejoin="round"/>
<path d="M9.38477 8.55644V5.0459H11.7251" stroke="black" stroke-linecap="round" stroke-linejoin="round"/>
<path d="M9.38477 6.6543H11.4326" stroke="black" stroke-linecap="round" stroke-linejoin="round"/>
</svg>
