<svg width="14" height="14" viewBox="0 0 14 14" fill="none" xmlns="http://www.w3.org/2000/svg">
<g clip-path="url(#clip0_2323_12639)">
<path d="M6.99888 0.551759C5.8325 0.552122 4.68807 0.868845 3.68747 1.4682C2.68687 2.06755 1.86758 2.92708 1.31685 3.95524C0.76612 4.9834 0.504584 6.14169 0.560095 7.30674C0.615606 8.47179 0.986087 9.59997 1.63208 10.5711L0.550781 13.448L4.17163 12.7932C5.04352 13.2193 6.00034 13.4431 6.97075 13.4479C7.94116 13.4527 8.90014 13.2384 9.77621 12.821C10.6522 12.4036 11.4228 11.7938 12.0304 11.0372C12.638 10.2805 13.067 9.39642 13.2854 8.45089C13.5037 7.50535 13.5059 6.52272 13.2916 5.57624C13.0774 4.62977 12.6523 3.74385 12.048 2.98454C11.4437 2.22523 10.6758 1.61211 9.80158 1.19089C8.92734 0.769656 7.9693 0.551186 6.99888 0.551759Z" stroke="black" stroke-linecap="round" stroke-linejoin="round"/>
<path d="M5.51172 5.51146C5.51172 5.21716 5.59899 4.92946 5.7625 4.68476C5.926 4.44005 6.1584 4.24933 6.4303 4.13671C6.7022 4.02408 7.00139 3.99461 7.29004 4.05203C7.57869 4.10944 7.84383 4.25116 8.05194 4.45927C8.26004 4.66737 8.40176 4.93251 8.45917 5.22116C8.51659 5.50981 8.48712 5.809 8.3745 6.0809C8.26187 6.3528 8.07115 6.5852 7.82645 6.7487C7.58174 6.91221 7.29405 6.99948 6.99974 6.99948V7.9915" stroke="black" stroke-linecap="round" stroke-linejoin="round"/>
<path d="M6.99995 10.4716C6.86298 10.4716 6.75195 10.3605 6.75195 10.2236C6.75195 10.0866 6.86298 9.97559 6.99995 9.97559" stroke="black" stroke-linecap="round" stroke-linejoin="round"/>
<path d="M7 10.4716C7.13697 10.4716 7.248 10.3606 7.248 10.2236C7.248 10.0866 7.13697 9.97559 7 9.97559" stroke="black" stroke-linecap="round" stroke-linejoin="round"/>
</g>
<defs>
<clipPath id="clip0_2323_12639">
<rect width="14" height="14" fill="white"/>
</clipPath>
</defs>
</svg>
