<svg width="14" height="14" viewBox="0 0 14 14" fill="none" xmlns="http://www.w3.org/2000/svg">
<path d="M5 0.5H3C2.44772 0.5 2 0.947715 2 1.5V3.5C2 4.05228 2.44772 4.5 3 4.5H5C5.55228 4.5 6 4.05228 6 3.5V1.5C6 0.947715 5.55228 0.5 5 0.5Z" stroke="black" stroke-linecap="round" stroke-linejoin="round"/>
<path d="M5 9.5H3C2.44772 9.5 2 9.94772 2 10.5V12.5C2 13.0523 2.44772 13.5 3 13.5H5C5.55228 13.5 6 13.0523 6 12.5V10.5C6 9.94772 5.55228 9.5 5 9.5Z" stroke="black" stroke-linecap="round" stroke-linejoin="round"/>
<path d="M11 5.5H9C8.44772 5.5 8 5.94772 8 6.5V8.5C8 9.05228 8.44772 9.5 9 9.5H11C11.5523 9.5 12 9.05228 12 8.5V6.5C12 5.94772 11.5523 5.5 11 5.5Z" stroke="black" stroke-linecap="round" stroke-linejoin="round"/>
<path d="M4 4.5V9.5" stroke="black" stroke-linecap="round" stroke-linejoin="round"/>
<path d="M8 7.5H7C6.20435 7.5 5.44129 7.18393 4.87868 6.62132C4.31607 6.05871 4 5.29565 4 4.5" stroke="black" stroke-linecap="round" stroke-linejoin="round"/>
</svg>
