<svg width="14" height="14" viewBox="0 0 14 14" fill="none" xmlns="http://www.w3.org/2000/svg">
<g clip-path="url(#clip0_2323_12720)">
<path d="M13.5 13.5L0.5 0.5" stroke="black" stroke-linecap="round" stroke-linejoin="round"/>
<path d="M9.1407 12.9484C8.45503 13.3214 7.6838 13.5087 6.90344 13.4918C6.12308 13.4749 5.36068 13.2543 4.69182 12.852C4.02295 12.4497 3.47083 11.8795 3.09019 11.1981C2.70954 10.5167 2.51358 9.74758 2.52173 8.96708C2.56755 8.29832 2.73626 7.64373 3.01939 7.03613" stroke="black" stroke-linecap="round" stroke-linejoin="round"/>
<path d="M11.0205 11.0208C11.3327 10.3995 11.4998 9.70836 11.4998 9C11.4998 6.51 6.99971 0.5 6.99971 0.5C6.99971 0.5 5.62594 2.33475 4.39648 4.39677" stroke="black" stroke-linecap="round" stroke-linejoin="round"/>
</g>
<defs>
<clipPath id="clip0_2323_12720">
<rect width="14" height="14" fill="white"/>
</clipPath>
</defs>
</svg>
