<svg width="14" height="14" viewBox="0 0 14 14" fill="none" xmlns="http://www.w3.org/2000/svg">
<g clip-path="url(#clip0_2323_12725)">
<path d="M7 13.5C10.5899 13.5 13.5 10.5899 13.5 7C13.5 3.41015 10.5899 0.5 7 0.5C3.41015 0.5 0.5 3.41015 0.5 7C0.5 10.5899 3.41015 13.5 7 13.5Z" stroke="black" stroke-linecap="round" stroke-linejoin="round"/>
<path d="M5.54102 2.89551C5.47199 2.89551 5.41602 2.83954 5.41602 2.77051C5.41602 2.70147 5.47199 2.64551 5.54102 2.64551" stroke="black" stroke-linecap="round" stroke-linejoin="round"/>
<path d="M5.54102 2.89551C5.61006 2.89551 5.66602 2.83954 5.66602 2.77051C5.66602 2.70147 5.61006 2.64551 5.54102 2.64551" stroke="black" stroke-linecap="round" stroke-linejoin="round"/>
<path d="M8.45898 2.89551C8.38994 2.89551 8.33398 2.83954 8.33398 2.77051C8.33398 2.70147 8.38994 2.64551 8.45898 2.64551" stroke="black" stroke-linecap="round" stroke-linejoin="round"/>
<path d="M8.45898 2.89551C8.52801 2.89551 8.58398 2.83954 8.58398 2.77051C8.58398 2.70147 8.52801 2.64551 8.45898 2.64551" stroke="black" stroke-linecap="round" stroke-linejoin="round"/>
<path d="M5.54102 11.3535C5.47199 11.3535 5.41602 11.2975 5.41602 11.2285C5.41602 11.1595 5.47199 11.1035 5.54102 11.1035" stroke="black" stroke-linecap="round" stroke-linejoin="round"/>
<path d="M5.54102 11.3535C5.61006 11.3535 5.66602 11.2975 5.66602 11.2285C5.66602 11.1595 5.61006 11.1035 5.54102 11.1035" stroke="black" stroke-linecap="round" stroke-linejoin="round"/>
<path d="M2.77148 5.66699C2.70244 5.66699 2.64648 5.61103 2.64648 5.54199C2.64648 5.47296 2.70244 5.41699 2.77148 5.41699" stroke="black" stroke-linecap="round" stroke-linejoin="round"/>
<path d="M2.77148 5.66699C2.84051 5.66699 2.89648 5.61103 2.89648 5.54199C2.89648 5.47296 2.84051 5.41699 2.77148 5.41699" stroke="black" stroke-linecap="round" stroke-linejoin="round"/>
<path d="M2.77148 8.58301C2.70244 8.58301 2.64648 8.52704 2.64648 8.45801C2.64648 8.38897 2.70244 8.33301 2.77148 8.33301" stroke="black" stroke-linecap="round" stroke-linejoin="round"/>
<path d="M2.77148 8.58301C2.84051 8.58301 2.89648 8.52704 2.89648 8.45801C2.89648 8.38897 2.84051 8.33301 2.77148 8.33301" stroke="black" stroke-linecap="round" stroke-linejoin="round"/>
<path d="M11.2285 5.66699C11.1595 5.66699 11.1035 5.61103 11.1035 5.54199C11.1035 5.47296 11.1595 5.41699 11.2285 5.41699" stroke="black" stroke-linecap="round" stroke-linejoin="round"/>
<path d="M11.2285 5.66699C11.2975 5.66699 11.3535 5.61103 11.3535 5.54199C11.3535 5.47296 11.2975 5.41699 11.2285 5.41699" stroke="black" stroke-linecap="round" stroke-linejoin="round"/>
<path d="M11.2285 8.58301C11.1595 8.58301 11.1035 8.52704 11.1035 8.45801C11.1035 8.38897 11.1595 8.33301 11.2285 8.33301" stroke="black" stroke-linecap="round" stroke-linejoin="round"/>
<path d="M11.2285 8.58301C11.2975 8.58301 11.3535 8.52704 11.3535 8.45801C11.3535 8.38897 11.2975 8.33301 11.2285 8.33301" stroke="black" stroke-linecap="round" stroke-linejoin="round"/>
<path d="M8.45898 11.3535C8.38994 11.3535 8.33398 11.2975 8.33398 11.2285C8.33398 11.1595 8.38994 11.1035 8.45898 11.1035" stroke="black" stroke-linecap="round" stroke-linejoin="round"/>
<path d="M8.45898 11.3535C8.52801 11.3535 8.58398 11.2975 8.58398 11.2285C8.58398 11.1595 8.52801 11.1035 8.45898 11.1035" stroke="black" stroke-linecap="round" stroke-linejoin="round"/>
<path d="M5.5 5.79199C5.36193 5.79199 5.25 5.68006 5.25 5.54199C5.25 5.40392 5.36193 5.29199 5.5 5.29199" stroke="black" stroke-linecap="round" stroke-linejoin="round"/>
<path d="M5.5 5.79199C5.63807 5.79199 5.75 5.68006 5.75 5.54199C5.75 5.40392 5.63807 5.29199 5.5 5.29199" stroke="black" stroke-linecap="round" stroke-linejoin="round"/>
<path d="M8.52148 5.79199C8.38341 5.79199 8.27148 5.68006 8.27148 5.54199C8.27148 5.40392 8.38341 5.29199 8.52148 5.29199" stroke="black" stroke-linecap="round" stroke-linejoin="round"/>
<path d="M8.52148 5.79199C8.65955 5.79199 8.77148 5.68006 8.77148 5.54199C8.77148 5.40392 8.65955 5.29199 8.52148 5.29199" stroke="black" stroke-linecap="round" stroke-linejoin="round"/>
<path d="M5.5 8.70801C5.36193 8.70801 5.25 8.59608 5.25 8.45801C5.25 8.31994 5.36193 8.20801 5.5 8.20801" stroke="black" stroke-linecap="round" stroke-linejoin="round"/>
<path d="M5.5 8.70801C5.63807 8.70801 5.75 8.59608 5.75 8.45801C5.75 8.31994 5.63807 8.20801 5.5 8.20801" stroke="black" stroke-linecap="round" stroke-linejoin="round"/>
<path d="M8.52148 8.70801C8.38341 8.70801 8.27148 8.59608 8.27148 8.45801C8.27148 8.31994 8.38341 8.20801 8.52148 8.20801" stroke="black" stroke-linecap="round" stroke-linejoin="round"/>
<path d="M8.52148 8.70801C8.65955 8.70801 8.77148 8.59608 8.77148 8.45801C8.77148 8.31994 8.65955 8.20801 8.52148 8.20801" stroke="black" stroke-linecap="round" stroke-linejoin="round"/>
</g>
<defs>
<clipPath id="clip0_2323_12725">
<rect width="14" height="14" fill="white"/>
</clipPath>
</defs>
</svg>
