<svg width="14" height="14" viewBox="0 0 14 14" fill="none" xmlns="http://www.w3.org/2000/svg">
<g clip-path="url(#clip0_2323_12835)">
<path d="M4.12396 12.7087C5.64189 12.7087 6.02137 11.6362 6.02137 11.0999C6.02137 10.5637 5.64189 9.49121 4.12396 9.49121C2.60604 9.49121 2.22656 10.5637 2.22656 11.0999C2.22656 11.6362 2.60604 12.7087 4.12396 12.7087Z" stroke="black" stroke-linecap="round" stroke-linejoin="round"/>
<path d="M7 9.80621C1.8 9.80621 0.5 6.7445 0.5 5.21365C0.5 3.6828 1.8 0.621094 7 0.621094C12.2 0.621094 13.5 3.6828 13.5 5.21365C13.5 6.7445 12.2 9.80621 7 9.80621Z" stroke="black" stroke-linecap="round" stroke-linejoin="round"/>
<path d="M5.58594 10.0322C6.59554 11.1793 7.26861 11.944 7.26521 13.3775" stroke="black" stroke-linecap="round" stroke-linejoin="round"/>
</g>
<defs>
<clipPath id="clip0_2323_12835">
<rect width="14" height="14" fill="white"/>
</clipPath>
</defs>
</svg>
