<svg width="14" height="14" viewBox="0 0 14 14" fill="none" xmlns="http://www.w3.org/2000/svg">
<path d="M11.4999 5.03108C11.5055 4.22784 11.2959 3.43776 10.893 2.74285C10.4901 2.04795 9.90851 1.47356 9.20867 1.07931C8.50882 0.68506 7.71619 0.485325 6.91309 0.50084C6.10998 0.516354 5.32566 0.746553 4.64156 1.16754C3.95746 1.58852 3.39852 2.18495 3.02275 2.89489C2.64699 3.60484 2.4681 4.40242 2.50467 5.20485C2.54123 6.00727 2.79192 6.78528 3.23069 7.45811C3.66947 8.13094 4.28034 8.67405 4.9999 9.03108V10.5311C4.9999 10.6637 5.05257 10.7909 5.14634 10.8846C5.24011 10.9784 5.36729 11.0311 5.4999 11.0311H8.4999C8.6325 11.0311 8.75968 10.9784 8.85345 10.8846C8.94722 10.7909 8.9999 10.6637 8.9999 10.5311V9.03108C9.74738 8.6628 10.3774 8.09336 10.819 7.38675C11.2606 6.68013 11.4964 5.86434 11.4999 5.03108Z" stroke="black" stroke-linecap="round" stroke-linejoin="round"/>
<path d="M5 13.5H9" stroke="black" stroke-linecap="round" stroke-linejoin="round"/>
</svg>
