<svg width="14" height="14" viewBox="0 0 14 14" fill="none" xmlns="http://www.w3.org/2000/svg">
<g clip-path="url(#clip0_2323_12876)">
<path d="M1.04683 5.81445H3.39811V12.0746H1.04683C0.91527 12.0746 0.789098 12.0224 0.696071 11.9293C0.603043 11.8363 0.550781 11.7101 0.550781 11.5786V6.3105C0.550781 6.17894 0.603043 6.05277 0.696071 5.95974C0.789098 5.86672 0.91527 5.81445 1.04683 5.81445Z" stroke="black" stroke-linecap="round" stroke-linejoin="round"/>
<path d="M3.39844 5.81407L5.91837 1.78614C6.01603 1.62694 6.15326 1.49574 6.31669 1.40533C6.48012 1.31492 6.66419 1.26839 6.85095 1.27025C6.99804 1.26494 7.1447 1.28917 7.28226 1.34151C7.41983 1.39385 7.5455 1.47323 7.65187 1.57497C7.75823 1.67671 7.84312 1.79873 7.90151 1.93384C7.95991 2.06894 7.99063 2.21438 7.99186 2.36156V5.24857H12.3472C12.5081 5.25379 12.6661 5.29301 12.8108 5.36367C12.9555 5.43432 13.0836 5.53479 13.1867 5.65849C13.2898 5.78219 13.3655 5.9263 13.4089 6.08136C13.4523 6.23642 13.4624 6.39891 13.4385 6.55814L12.6448 11.6774C12.611 11.951 12.4783 12.2028 12.2719 12.3855C12.0655 12.5682 11.7994 12.6692 11.5237 12.6695H5.01556C4.70575 12.6707 4.39996 12.5994 4.12267 12.4611L3.40836 12.104" stroke="black" stroke-linecap="round" stroke-linejoin="round"/>
<path d="M3.39844 5.81445V12.0746" stroke="black" stroke-linecap="round" stroke-linejoin="round"/>
</g>
<defs>
<clipPath id="clip0_2323_12876">
<rect width="14" height="14" fill="white"/>
</clipPath>
</defs>
</svg>
