<svg width="14" height="14" viewBox="0 0 14 14" fill="none" xmlns="http://www.w3.org/2000/svg">
<g clip-path="url(#clip0_2323_12886)">
<path d="M5.01367 8.76419V5.23553C5.01367 4.82793 5.4881 4.57029 5.87415 4.76824L9.31508 6.53256C9.7123 6.73624 9.7123 7.26348 9.31508 7.46715L5.87415 9.23148C5.4881 9.42943 5.01367 9.17178 5.01367 8.76419Z" stroke="black" stroke-linecap="round" stroke-linejoin="round"/>
<path d="M0.609287 6.13867C0.577114 6.39961 0.560547 6.66538 0.560547 6.93503C0.560547 7.20467 0.577114 7.47045 0.609287 7.73139" stroke="black" stroke-linecap="round" stroke-linejoin="round"/>
<path d="M3.11523 1.79831C3.32513 1.63998 3.54701 1.49274 3.78053 1.35792C4.01405 1.2231 4.2525 1.10456 4.49457 1.00195" stroke="black" stroke-linecap="round" stroke-linejoin="round"/>
<path d="M1.06836 4.42914C1.17096 4.18707 1.2895 3.94862 1.42433 3.7151C1.55915 3.48158 1.70638 3.2597 1.86472 3.0498" stroke="black" stroke-linecap="round" stroke-linejoin="round"/>
<path d="M7.01233 0.5C10.5618 0.5 13.4392 3.41015 13.4392 7C13.4392 10.5899 10.5618 13.5 7.01233 13.5C4.56637 13.5 2.43954 12.1181 1.35352 10.0841" stroke="black" stroke-linecap="round" stroke-linejoin="round"/>
</g>
<defs>
<clipPath id="clip0_2323_12886">
<rect width="14" height="14" fill="white"/>
</clipPath>
</defs>
</svg>
