<svg width="14" height="14" viewBox="0 0 14 14" fill="none" xmlns="http://www.w3.org/2000/svg">
<path d="M10.5 9.99986C10.9036 10.0386 11.3107 9.98757 11.6923 9.8505C12.0739 9.71342 12.4204 9.49367 12.7071 9.20698C12.9938 8.92029 13.2135 8.57375 13.3506 8.19219C13.4877 7.81062 13.5 6.99987 13.5 6.99987C13.5 6.99987 13.4877 6.18913 13.3506 5.80756C13.2135 5.42599 12.9938 5.07946 12.7071 4.79277C12.4204 4.50608 12.0739 4.28632 11.6923 4.14925C11.3107 4.01217 10.9036 3.96116 10.5 3.99987C7.75 3.99987 6.25 9.99986 3.5 9.99986C3.09641 10.0386 2.68925 9.98757 2.30769 9.8505C1.92612 9.71342 1.57958 9.49367 1.29289 9.20698C1.0062 8.92029 0.786451 8.57375 0.649375 8.19219C0.512299 7.81062 0.5 6.99987 0.5 6.99987C0.5 6.99987 0.512299 6.18913 0.649375 5.80756C0.786451 5.42599 1.0062 5.07946 1.29289 4.79277C1.57958 4.50608 1.92612 4.28632 2.30769 4.14925C2.68925 4.01217 3.09641 3.96116 3.5 3.99987C6.25 3.99987 7.75 9.99986 10.5 9.99986Z" stroke="black" stroke-linecap="round" stroke-linejoin="round"/>
</svg>
