<svg width="14" height="14" viewBox="0 0 14 14" fill="none" xmlns="http://www.w3.org/2000/svg">
<g clip-path="url(#clip0_2323_12912)">
<path d="M12.6407 1.87014L11.8007 4.35014C11.7717 4.4075 11.7566 4.47087 11.7566 4.53514C11.7566 4.59941 11.7717 4.66279 11.8007 4.72014L13.3707 6.82014C13.4158 6.88025 13.4431 6.95185 13.4494 7.02674C13.4557 7.10164 13.4408 7.17679 13.4063 7.24359C13.3719 7.31039 13.3193 7.36613 13.2547 7.40443C13.19 7.44273 13.1159 7.46204 13.0407 7.46014H10.4207C10.3565 7.46203 10.2935 7.47828 10.2364 7.5077C10.1793 7.53712 10.1295 7.57896 10.0907 7.63014L8.63076 9.73014C8.58793 9.79153 8.52875 9.83967 8.45993 9.86909C8.39111 9.89851 8.31541 9.90803 8.24145 9.89657C8.16749 9.88512 8.09822 9.85313 8.04153 9.80427C7.98484 9.7554 7.94299 9.69161 7.92076 9.62014L7.14075 7.12014C7.12296 7.05835 7.08977 7.00208 7.0443 6.9566C6.99882 6.91113 6.94255 6.87794 6.88076 6.86014L4.38076 6.08014C4.30929 6.0579 4.2455 6.01606 4.19663 5.95937C4.14776 5.90268 4.11578 5.83341 4.10432 5.75945C4.09286 5.68549 4.10239 5.60979 4.13181 5.54097C4.16123 5.47215 4.20937 5.41296 4.27076 5.37014L6.41075 3.86014C6.46194 3.82133 6.50378 3.77154 6.5332 3.71443C6.56262 3.65733 6.57887 3.59435 6.58075 3.53014V0.910147C6.58355 0.841332 6.60406 0.774404 6.64031 0.715842C6.67656 0.657281 6.72731 0.609071 6.78766 0.575881C6.84801 0.54269 6.9159 0.525643 6.98477 0.526391C7.05363 0.527138 7.12114 0.545654 7.18075 0.580147L9.28077 2.15014C9.33408 2.18717 9.39541 2.21101 9.45973 2.2197C9.52406 2.2284 9.58953 2.22169 9.65075 2.20014L12.1307 1.36014C12.2018 1.33515 12.2786 1.33076 12.3521 1.34748C12.4256 1.36421 12.4929 1.40137 12.5462 1.45467C12.5995 1.50798 12.6367 1.57527 12.6534 1.64877C12.6701 1.72228 12.6657 1.79902 12.6407 1.87014Z" stroke="black" stroke-linecap="round" stroke-linejoin="round"/>
<path d="M7.04 6.95996L0.5 13.5" stroke="black" stroke-linecap="round" stroke-linejoin="round"/>
</g>
<defs>
<clipPath id="clip0_2323_12912">
<rect width="14" height="14" fill="white"/>
</clipPath>
</defs>
</svg>
