<svg width="14" height="14" viewBox="0 0 14 14" fill="none" xmlns="http://www.w3.org/2000/svg">
<g clip-path="url(#clip0_2323_12933)">
<path d="M4.5 9.05978L12.18 11.6198C12.3304 11.6694 12.4904 11.6826 12.6469 11.6582C12.8033 11.6339 12.9518 11.5727 13.08 11.4798C13.2092 11.3878 13.3147 11.2664 13.3878 11.1255C13.4608 10.9847 13.4993 10.8285 13.5 10.6698V2.43978C13.4993 2.28113 13.4608 2.12493 13.3878 1.98409C13.3147 1.84325 13.2092 1.7218 13.08 1.62978C12.9509 1.53852 12.8021 1.47916 12.6456 1.45656C12.4892 1.43397 12.3296 1.44878 12.18 1.49978L4.5 4.05978V9.05978Z" stroke="black" stroke-linecap="round" stroke-linejoin="round"/>
<path d="M0.5 6.55957C0.5 6.88787 0.564664 7.21296 0.690301 7.51628C0.815938 7.81959 1.00009 8.09519 1.23223 8.32734C1.70107 8.79618 2.33696 9.05957 3 9.05957H4.5V4.05957H3C2.6717 4.05957 2.34661 4.12423 2.04329 4.24987C1.73998 4.37551 1.46438 4.55966 1.23223 4.7918C0.763392 5.26064 0.5 5.89653 0.5 6.55957Z" stroke="black" stroke-linecap="round" stroke-linejoin="round"/>
<path d="M3 9.05957V10.0596C3 10.3879 3.06466 10.713 3.1903 11.0163C3.31594 11.3196 3.50009 11.5952 3.73223 11.8273C3.96438 12.0595 4.23998 12.2436 4.54329 12.3693C4.84661 12.4949 5.1717 12.5596 5.5 12.5596" stroke="black" stroke-linecap="round" stroke-linejoin="round"/>
</g>
<defs>
<clipPath id="clip0_2323_12933">
<rect width="14" height="14" fill="white"/>
</clipPath>
</defs>
</svg>
