<svg width="14" height="14" viewBox="0 0 14 14" fill="none" xmlns="http://www.w3.org/2000/svg">
<g clip-path="url(#clip0_2323_12964)">
<path d="M4.6453 11.0015C5.13114 11.0015 5.52499 10.6077 5.52499 10.1218C5.52499 9.63603 5.13114 9.24219 4.6453 9.24219C4.15947 9.24219 3.76562 9.63603 3.76562 10.1218C3.76562 10.6077 4.15947 11.0015 4.6453 11.0015Z" stroke="black" stroke-linecap="round" stroke-linejoin="round"/>
<path d="M8.60234 9.90193C9.08817 9.90193 9.48201 9.50809 9.48201 9.02225C9.48201 8.53642 9.08817 8.14258 8.60234 8.14258C8.1165 8.14258 7.72266 8.53642 7.72266 9.02225C7.72266 9.50809 8.1165 9.90193 8.60234 9.90193Z" stroke="black" stroke-linecap="round" stroke-linejoin="round"/>
<path d="M5.52539 10.1204V6.33771L9.48208 5.40625V9.02165" stroke="black" stroke-linecap="round" stroke-linejoin="round"/>
<path d="M0.5 12.2504V1.75042C0.5 1.4852 0.605357 1.23085 0.792893 1.04331C0.98043 0.855781 1.23478 0.750424 1.5 0.750424H5.19C5.41843 0.743769 5.64226 0.815557 5.82421 0.953838C6.00615 1.09211 6.13525 1.28854 6.19 1.51042L6.5 2.75042H12.5C12.7652 2.75042 13.0196 2.85578 13.2071 3.04331C13.3946 3.23085 13.5 3.4852 13.5 3.75042V12.2504C13.5 12.5156 13.3946 12.77 13.2071 12.9575C13.0196 13.145 12.7652 13.2504 12.5 13.2504H1.5C1.23478 13.2504 0.98043 13.145 0.792893 12.9575C0.605357 12.77 0.5 12.5156 0.5 12.2504Z" stroke="black" stroke-linecap="round" stroke-linejoin="round"/>
</g>
<defs>
<clipPath id="clip0_2323_12964">
<rect width="14" height="14" fill="white"/>
</clipPath>
</defs>
</svg>
