<svg width="14" height="14" viewBox="0 0 14 14" fill="none" xmlns="http://www.w3.org/2000/svg">
<path d="M8.95473 13.3087C9.41934 13.1692 9.86488 12.9381 10.2644 12.6126C10.8036 12.1734 11.1934 11.614 11.4233 11.0037C11.6707 10.347 11.3389 9.61426 10.6823 9.36691C10.4946 9.29621 10.3007 9.27282 10.1137 9.29081C10.297 9.24849 10.4738 9.16465 10.6295 9.0378C11.1735 8.59462 11.215 7.58568 10.7718 7.04168C9.97033 6.0579 8.77959 5.57807 7.60265 5.64334L8.92273 2.61674C9.23875 1.89219 8.89976 1.04926 8.1701 0.745238C7.57167 0.495892 6.88228 0.684822 6.52192 1.22374C5.53084 2.70588 3.70839 5.71151 3.59489 7.92443C3.43849 10.9736 3.59492 13.3087 3.59492 13.3087" stroke="black" stroke-linecap="round" stroke-linejoin="round"/>
<path fill-rule="evenodd" clip-rule="evenodd" d="M7.15947 8.64002C6.61548 9.0832 6.53376 9.88347 6.97694 10.4275C7.42012 10.9715 8.22038 11.0532 8.76437 10.61C8.94627 10.4618 9.07445 10.2769 9.15039 10.0753C9.30614 9.66182 9.65436 9.37716 10.0548 9.28478C9.64602 9.32414 9.22577 9.16486 8.94691 8.82256C8.50373 8.27857 7.70347 8.19684 7.15947 8.64002Z" stroke="black" stroke-linecap="round" stroke-linejoin="round"/>
<path d="M7.61171 5.64551C7.35623 5.67577 6.74848 5.78872 6.36133 5.99842" stroke="black" stroke-linecap="round" stroke-linejoin="round"/>
<path d="M3.54009 8.99888C2.64516 6.99797 2.68522 3.71134 2.77975 2.00962C2.81571 1.36232 3.31302 0.848859 3.95505 0.758967C4.73788 0.649363 5.45865 1.20247 5.55533 1.987V2.78554" stroke="black" stroke-linecap="round" stroke-linejoin="round"/>
</svg>
