<svg width="14" height="14" viewBox="0 0 14 14" fill="none" xmlns="http://www.w3.org/2000/svg">
<g clip-path="url(#clip0_2323_13005)">
<path d="M10.8626 5.84241C12.3195 5.84241 13.5006 4.66133 13.5006 3.20441C13.5006 1.74748 12.3195 0.566406 10.8626 0.566406C9.40568 0.566406 8.22461 1.74748 8.22461 3.20441C8.22461 4.66133 9.40568 5.84241 10.8626 5.84241Z" stroke="black" stroke-linecap="round" stroke-linejoin="round"/>
<path d="M11.4258 2.64551L10.8613 3.20252" stroke="black" stroke-linecap="round" stroke-linejoin="round"/>
<path d="M10.2372 13.4341V10.8482C10.2372 9.42716 9.08521 8.27518 7.66417 8.27518H5.64933V4.29069C5.64933 3.65714 5.13574 3.14355 4.50219 3.14355C3.86864 3.14355 3.35505 3.65714 3.35505 4.29069V9.51376L3.091 9.56345C1.87209 9.79284 1.29204 11.2002 1.9953 12.2219L2.08122 12.3467L2.82885 13.4341" stroke="black" stroke-linecap="round" stroke-linejoin="round"/>
<path d="M1.16767 5.25889C1.1091 5.00709 1.07812 4.74471 1.07812 4.47509C1.07812 2.57204 2.62087 1.0293 4.52392 1.0293C5.10313 1.0293 5.64896 1.17221 6.12808 1.42469" stroke="black" stroke-linecap="round" stroke-linejoin="round"/>
</g>
<defs>
<clipPath id="clip0_2323_13005">
<rect width="14" height="14" fill="white"/>
</clipPath>
</defs>
</svg>
