<svg width="14" height="14" viewBox="0 0 14 14" fill="none" xmlns="http://www.w3.org/2000/svg">
<path d="M12.1024 13.4997V10.6665C12.1024 9.24545 10.9504 8.09348 9.52941 8.09348H7.29461V3.91796C7.29461 3.25403 6.75639 2.71582 6.09247 2.71582C5.42854 2.71582 4.89033 3.25403 4.89033 3.91796L4.89032 9.39144L4.48944 9.46689C3.27053 9.69628 2.69047 11.1036 3.39373 12.1252L3.55542 12.3601L4.33889 13.4997" stroke="black" stroke-linecap="round" stroke-linejoin="round"/>
<path d="M2.59774 4.93236C2.53636 4.6685 2.50391 4.39354 2.50391 4.11099C2.50391 2.1167 4.12061 0.5 6.1149 0.5C8.1092 0.5 9.72589 2.1167 9.72589 4.11099C9.72589 4.39354 9.69344 4.6685 9.63207 4.93236" stroke="black" stroke-linecap="round" stroke-linejoin="round"/>
</svg>
