<svg width="14" height="14" viewBox="0 0 14 14" fill="none" xmlns="http://www.w3.org/2000/svg">
<g clip-path="url(#clip0_2323_12992)">
<path d="M13.4776 11.8324L13.0174 9.07531C12.7835 7.67366 11.4576 6.72703 10.056 6.96096L7.885 7.32328L7.20247 3.2337C7.09395 2.58344 6.47883 2.14428 5.82857 2.2528C5.17831 2.36133 4.73915 2.97644 4.84768 3.6267L5.74237 8.98754L5.37948 9.12057C4.21496 9.54749 3.87448 11.0311 4.73633 11.9231L4.9202 12.1134L5.87383 13.1014" stroke="black" stroke-linecap="round" stroke-linejoin="round"/>
<path d="M1.75 0.5L0.5 1.75L1.75 3" stroke="black" stroke-linecap="round" stroke-linejoin="round"/>
<path d="M0.5 1.75H3.5" stroke="black" stroke-linecap="round" stroke-linejoin="round"/>
<path d="M10.25 0.5L11.5 1.75L10.25 3" stroke="black" stroke-linecap="round" stroke-linejoin="round"/>
<path d="M11.5 1.75H8.5" stroke="black" stroke-linecap="round" stroke-linejoin="round"/>
</g>
<defs>
<clipPath id="clip0_2323_12992">
<rect width="14" height="14" fill="white"/>
</clipPath>
</defs>
</svg>
