<svg width="14" height="14" viewBox="0 0 14 14" fill="none" xmlns="http://www.w3.org/2000/svg">
<g clip-path="url(#clip0_2323_13042)">
<path d="M6.13391 12.0569C4.60391 13.5969 2.00391 14.1069 0.503906 12.5669C2.50391 10.4969 0.503906 9.49689 2.00391 7.99689C2.2673 7.7035 2.58774 7.4669 2.94567 7.30155C3.30359 7.13619 3.69147 7.04555 4.08561 7.03518C4.47975 7.0248 4.87187 7.09491 5.23799 7.24121C5.60412 7.38751 5.93657 7.60693 6.21502 7.88607C6.49347 8.1652 6.71208 8.49818 6.85749 8.86467C7.0029 9.23115 7.07204 9.62344 7.06071 10.0176C7.04937 10.4117 6.95779 10.7993 6.79156 11.1569C6.62533 11.5144 6.38795 11.8342 6.09391 12.0969L6.13391 12.0569Z" stroke="black" stroke-linecap="round" stroke-linejoin="round"/>
<path d="M4.69922 7.08295L10.0041 1.16668C10.7582 0.318985 12.1193 0.277018 12.9241 1.07668C13.7242 1.88153 13.6821 3.24271 12.8341 3.99668L6.97749 9.241" stroke="black" stroke-linecap="round" stroke-linejoin="round"/>
</g>
<defs>
<clipPath id="clip0_2323_13042">
<rect width="14" height="14" fill="white"/>
</clipPath>
</defs>
</svg>
