<svg width="14" height="14" viewBox="0 0 14 14" fill="none" xmlns="http://www.w3.org/2000/svg">
<g clip-path="url(#clip0_2323_13046)">
<path d="M12.5001 6.9L6.10016 0.5L0.700165 7.7C0.557302 7.89167 0.487832 8.12819 0.504342 8.36667C0.520853 8.60516 0.622253 8.82984 0.790165 9L4.00016 12.21C4.16972 12.3753 4.39243 12.4751 4.62866 12.4916C4.86489 12.508 5.0993 12.4402 5.29016 12.3L12.5001 6.9Z" stroke="black" stroke-linecap="round" stroke-linejoin="round"/>
<path d="M11.3039 13.0672C10.9168 12.6192 11.0419 11.9487 11.2668 11.401C11.4288 11.0064 11.6323 10.6417 11.875 10.2252C11.9105 10.1566 11.9644 10.0992 12.0306 10.0595C12.0968 10.0197 12.1728 9.99913 12.2501 10.0001C12.3263 9.99874 12.4013 10.0193 12.4663 10.0591C12.5313 10.099 12.5835 10.1566 12.6168 10.2252C12.8638 10.6421 13.0704 11.0077 13.234 11.4043C13.459 11.9496 13.5829 12.6173 13.1984 13.0647C13.178 13.0885 13.1565 13.1116 13.1342 13.1339C12.8997 13.3684 12.5817 13.5002 12.2501 13.5002C11.9184 13.5002 11.6004 13.3684 11.3659 13.1339C11.3444 13.1124 11.3237 13.0901 11.3039 13.0672Z" stroke="black" stroke-linecap="round" stroke-linejoin="round"/>
</g>
<defs>
<clipPath id="clip0_2323_13046">
<rect width="14" height="14" fill="white"/>
</clipPath>
</defs>
</svg>
