<svg width="14" height="14" viewBox="0 0 14 14" fill="none" xmlns="http://www.w3.org/2000/svg">
<path d="M11.4996 8.5H2.49957L1.73957 12.3C1.71094 12.4453 1.71493 12.5951 1.75125 12.7386C1.78757 12.8821 1.8553 13.0158 1.94957 13.13C2.04262 13.2447 2.15993 13.3374 2.29307 13.4014C2.42621 13.4653 2.57186 13.499 2.71957 13.5H11.2796C11.4273 13.499 11.5729 13.4653 11.7061 13.4014C11.8392 13.3374 11.9565 13.2447 12.0496 13.13C12.1438 13.0158 12.2116 12.8821 12.2479 12.7386C12.2842 12.5951 12.2882 12.4453 12.2596 12.3L11.4996 8.5Z" stroke="black" stroke-linecap="round" stroke-linejoin="round"/>
<path d="M11.5 5.5C11.7652 5.5 12.0196 5.60536 12.2071 5.79289C12.3946 5.98043 12.5 6.23478 12.5 6.5V8.5H1.5V6.5C1.5 6.23478 1.60536 5.98043 1.79289 5.79289C1.98043 5.60536 2.23478 5.5 2.5 5.5H4C4.26522 5.5 4.51957 5.39464 4.70711 5.20711C4.89464 5.01957 5 4.76522 5 4.5V2.5C5 1.96957 5.21071 1.46086 5.58579 1.08579C5.96086 0.710714 6.46957 0.5 7 0.5C7.53043 0.5 8.03914 0.710714 8.41421 1.08579C8.78929 1.46086 9 1.96957 9 2.5V4.5C9 4.76522 9.10536 5.01957 9.29289 5.20711C9.48043 5.39464 9.73478 5.5 10 5.5H11.5Z" stroke="black" stroke-linecap="round" stroke-linejoin="round"/>
<path d="M8.5 13.5V11" stroke="black" stroke-linecap="round" stroke-linejoin="round"/>
</svg>
