<svg width="14" height="14" viewBox="0 0 14 14" fill="none" xmlns="http://www.w3.org/2000/svg">
<g clip-path="url(#clip0_2323_13056)">
<path d="M12.8591 6.7867L6.97949 12.7157C6.75136 12.9481 6.47918 13.1328 6.17887 13.2588C5.87856 13.3849 5.55613 13.4498 5.23044 13.4498C4.90474 13.4498 4.58232 13.3849 4.282 13.2588C3.98169 13.1328 3.70951 12.9481 3.48139 12.7157L1.72245 10.9271C1.26199 10.4594 1.00391 9.82944 1.00391 9.17312C1.00391 8.51681 1.26199 7.88681 1.72245 7.41913L7.98742 1.1344C8.17114 0.949161 8.38973 0.802134 8.63056 0.701798C8.8714 0.601463 9.12971 0.549805 9.39061 0.549805C9.65151 0.549805 9.90983 0.601463 10.1507 0.701798C10.3915 0.802134 10.6101 0.949161 10.7938 1.1344L11.4954 1.836C11.6807 2.01972 11.8277 2.23831 11.928 2.47914C12.0284 2.71997 12.08 2.97829 12.08 3.23919C12.08 3.50009 12.0284 3.75841 11.928 3.99924C11.8277 4.24008 11.6807 4.45866 11.4954 4.64238L5.94192 10.2156C5.85005 10.3083 5.74076 10.3818 5.62034 10.4319C5.49993 10.4821 5.37077 10.5079 5.24032 10.5079C5.10987 10.5079 4.98071 10.4821 4.86029 10.4319C4.73988 10.3818 4.63058 10.3083 4.53872 10.2156L4.19286 9.8599C4.10024 9.76803 4.02673 9.65874 3.97656 9.53832C3.9264 9.41791 3.90057 9.28875 3.90057 9.1583C3.90057 9.02785 3.9264 8.89869 3.97656 8.77827C4.02673 8.65786 4.10024 8.54856 4.19286 8.4567L7.91825 4.76096" stroke="black" stroke-linecap="round" stroke-linejoin="round"/>
</g>
<defs>
<clipPath id="clip0_2323_13056">
<rect width="14" height="14" fill="white"/>
</clipPath>
</defs>
</svg>
