<svg width="14" height="14" viewBox="0 0 14 14" fill="none" xmlns="http://www.w3.org/2000/svg">
<path d="M10.2089 13.5007C11.6725 12.0719 11.7716 10.241 11.9513 9.14453C12.2612 7.25439 10.2088 6.47854 7.93727 6.03832L8.22907 1.81583C8.27459 1.15709 7.75251 0.597666 7.09219 0.597656C6.51391 0.597647 6.0273 1.03076 5.96025 1.60514L5.48678 5.58988L4.44379 1.80176C4.2599 1.13388 3.56581 0.722906 2.89187 0.882858C2.21902 1.04255 1.81933 1.71132 1.99745 2.3794L3.44808 7.82025" stroke="black" stroke-linecap="round" stroke-linejoin="round"/>
<path d="M3.88459 13.5004C1.9081 12.7123 1.59938 10.7108 1.68963 9.31305C1.74636 8.43431 2.54431 7.82227 3.42488 7.82227H6.61655C7.19261 7.82227 7.6596 8.28926 7.6596 8.86532C7.6596 9.3477 7.32883 9.76715 6.85975 9.87962L5.05304 10.3128C5.62229 10.2195 6.92257 10.794 6.97051 12.0473" stroke="black" stroke-linecap="round" stroke-linejoin="round"/>
</svg>
