<svg width="14" height="14" viewBox="0 0 14 14" fill="none" xmlns="http://www.w3.org/2000/svg">
<g clip-path="url(#clip0_2323_13125)">
<path d="M0.640625 7.85955C1.42548 6.76277 3.80366 3.64589 6.58745 1.89262C8.6804 0.574437 10.657 2.31458 9.12421 4.067C7.62511 5.78092 5.61455 8.13971 4.75631 9.31094C3.8669 10.5247 5.38932 11.9925 6.91319 10.5953C7.93156 9.66158 8.99272 8.58739 10.0714 7.79366C11.5272 6.7225 12.7758 7.66836 12.1403 8.87583C11.6811 9.74831 11.3482 10.1338 10.9645 10.8681C10.5809 11.6025 10.9869 12.4831 11.5683 12.5586C12.2885 12.6522 12.744 12.136 13.3594 11.331" stroke="black" stroke-linecap="round" stroke-linejoin="round"/>
</g>
<defs>
<clipPath id="clip0_2323_13125">
<rect width="14" height="14" fill="white"/>
</clipPath>
</defs>
</svg>
