<svg width="14" height="14" viewBox="0 0 14 14" fill="none" xmlns="http://www.w3.org/2000/svg">
<g clip-path="url(#clip0_2323_13138)">
<path d="M10.9013 13.25L5.29991 8.00342C5.20331 7.92297 5.08158 7.87891 4.95587 7.87891C4.83016 7.87891 4.70842 7.92297 4.61183 8.00342L0.515625 10.9493" stroke="black" stroke-linecap="round" stroke-linejoin="round"/>
<path d="M9.85938 7.87891C9.03095 7.87891 8.35938 7.20734 8.35938 6.37891C8.35938 5.55048 9.03095 4.87891 9.85938 4.87891C10.6878 4.87891 11.3594 5.55048 11.3594 6.37891C11.3594 7.20734 10.6878 7.87891 9.85938 7.87891Z" stroke="black" stroke-linecap="round" stroke-linejoin="round"/>
<path d="M0.5 12.2504V1.75042C0.5 1.4852 0.605357 1.23085 0.792893 1.04331C0.98043 0.855781 1.23478 0.750424 1.5 0.750424H5.19C5.41843 0.743769 5.64226 0.815557 5.82421 0.953838C6.00615 1.09211 6.13525 1.28854 6.19 1.51042L6.5 2.75042H12.5C12.7652 2.75042 13.0196 2.85578 13.2071 3.04331C13.3946 3.23085 13.5 3.4852 13.5 3.75042V12.2504C13.5 12.5156 13.3946 12.77 13.2071 12.9575C13.0196 13.145 12.7652 13.2504 12.5 13.2504H1.5C1.23478 13.2504 0.98043 13.145 0.792893 12.9575C0.605357 12.77 0.5 12.5156 0.5 12.2504Z" stroke="black" stroke-linecap="round" stroke-linejoin="round"/>
</g>
<defs>
<clipPath id="clip0_2323_13138">
<rect width="14" height="14" fill="white"/>
</clipPath>
</defs>
</svg>
