<svg width="14" height="14" viewBox="0 0 14 14" fill="none" xmlns="http://www.w3.org/2000/svg">
<g clip-path="url(#clip0_2323_13187)">
<path d="M7 10.9902C8.933 10.9902 10.5 9.42323 10.5 7.49023C10.5 5.55723 8.933 3.99023 7 3.99023C5.067 3.99023 3.5 5.55723 3.5 7.49023C3.5 9.42323 5.067 10.9902 7 10.9902Z" stroke="black" stroke-linecap="round" stroke-linejoin="round"/>
<path d="M9.3497 1.31055C9.81333 1.77513 10.1288 2.36671 10.2564 3.01054C10.3839 3.65437 10.3178 4.32156 10.0663 4.92782C9.81483 5.53407 9.38929 6.05218 8.84347 6.41669C8.29765 6.78119 7.65603 6.97573 6.99969 6.97573C6.34334 6.97573 5.70172 6.78119 5.1559 6.41669C4.61008 6.05218 4.18454 5.53407 3.93306 4.92782C3.68157 4.32156 3.61543 3.65437 3.74298 3.01054C3.87053 2.36671 4.18606 1.77513 4.64969 1.31055" stroke="black" stroke-linecap="round" stroke-linejoin="round"/>
<path d="M0.5 8.5007C0.67047 7.86686 1.02499 7.29778 1.51877 6.86535C2.01254 6.43292 2.62342 6.15656 3.2742 6.07118C3.92499 5.9858 4.58648 6.09523 5.17509 6.38566C5.7637 6.67608 6.25302 7.13446 6.58122 7.70287C6.90942 8.27129 7.06177 8.92423 7.01902 9.57919C6.97627 10.2341 6.74035 10.8617 6.34105 11.3827C5.94175 11.9036 5.397 12.2945 4.77564 12.5059C4.15427 12.7174 3.48417 12.7399 2.85 12.5707" stroke="black" stroke-linecap="round" stroke-linejoin="round"/>
<path d="M11.1506 12.5707C10.5165 12.7399 9.84641 12.7174 9.22504 12.5059C8.60368 12.2945 8.05893 11.9036 7.65963 11.3827C7.26033 10.8617 7.0244 10.2341 6.98166 9.57919C6.93891 8.92423 7.09126 8.27129 7.41946 7.70287C7.74766 7.13446 8.23698 6.67608 8.82559 6.38566C9.4142 6.09523 10.0757 5.9858 10.7264 6.07118C11.3772 6.15656 11.9881 6.43292 12.4819 6.86535C12.9757 7.29778 13.3302 7.86686 13.5006 8.5007" stroke="black" stroke-linecap="round" stroke-linejoin="round"/>
</g>
<defs>
<clipPath id="clip0_2323_13187">
<rect width="14" height="14" fill="white"/>
</clipPath>
</defs>
</svg>
