<svg width="14" height="14" viewBox="0 0 14 14" fill="none" xmlns="http://www.w3.org/2000/svg">
<path d="M3.76334 13.4997C1.88058 12.7489 1.69229 11.0643 1.84738 9.66644C1.95492 8.69713 2.75857 8.08301 3.71266 8.08301C4.60737 8.08301 6.42043 8.08667 6.42043 8.08667C7.10405 8.13946 7.60044 8.76319 7.53553 9.43567C7.4355 10.472 6.21123 10.5835 5.38833 10.7914C6.01972 11.0827 7.25891 11.8865 7.16451 12.7716" stroke="black" stroke-linecap="round" stroke-linejoin="round"/>
<path d="M10.263 13.5L10.7164 13.0466C11.4665 12.2964 11.888 11.279 11.888 10.2181V4.02083C11.888 3.27295 11.2817 2.66667 10.5338 2.66667C9.78597 2.66667 9.17969 3.27295 9.17969 4.02083V7C7.56375 6.27439 7.16487 6.2022 5.38803 6.45833V1.85417C5.38803 1.10628 4.78175 0.5 4.03386 0.5C3.28597 0.5 2.67969 1.10628 2.67969 1.85417V8.33168" stroke="black" stroke-linecap="round" stroke-linejoin="round"/>
</svg>
