<svg width="14" height="14" viewBox="0 0 14 14" fill="none" xmlns="http://www.w3.org/2000/svg">
<g clip-path="url(#clip0_2323_13247)">
<path d="M8.5 0.670069C7.51285 0.44331 6.48715 0.44331 5.5 0.670069" stroke="black" stroke-linecap="round" stroke-linejoin="round"/>
<path d="M3.5907 1.46973C3.16165 1.73591 2.76267 2.04772 2.4007 2.39973C2.04869 2.7617 1.73688 3.16068 1.4707 3.58973" stroke="black" stroke-linecap="round" stroke-linejoin="round"/>
<path d="M0.670069 5.5C0.44331 6.48715 0.44331 7.51285 0.670069 8.5" stroke="black" stroke-linecap="round" stroke-linejoin="round"/>
<path d="M1.4707 10.4102C1.73688 10.8393 2.04869 11.2382 2.4007 11.6002C2.76267 11.9522 3.16165 12.264 3.5907 12.5302" stroke="black" stroke-linecap="round" stroke-linejoin="round"/>
<path d="M5.5 13.3301C6.48715 13.5568 7.51285 13.5568 8.5 13.3301" stroke="black" stroke-linecap="round" stroke-linejoin="round"/>
<path d="M10.4102 12.5302C10.8393 12.264 11.2383 11.9522 11.6002 11.6002C11.9522 11.2382 12.2641 10.8393 12.5302 10.4102" stroke="black" stroke-linecap="round" stroke-linejoin="round"/>
<path d="M13.3301 8.5C13.5568 7.51285 13.5568 6.48715 13.3301 5.5" stroke="black" stroke-linecap="round" stroke-linejoin="round"/>
<path d="M12.5302 3.58973C12.2641 3.16068 11.9522 2.7617 11.6002 2.39973C11.2383 2.04772 10.8393 1.73591 10.4102 1.46973" stroke="black" stroke-linecap="round" stroke-linejoin="round"/>
</g>
<defs>
<clipPath id="clip0_2323_13247">
<rect width="14" height="14" fill="white"/>
</clipPath>
</defs>
</svg>
