<svg width="14" height="14" viewBox="0 0 14 14" fill="none" xmlns="http://www.w3.org/2000/svg">
<g clip-path="url(#clip0_2323_13270)">
<path d="M7.35432 13.3834C7.12455 13.472 6.87002 13.472 6.64025 13.3834C4.8474 12.695 3.30552 11.4791 2.21829 9.89598C1.13105 8.31294 0.54962 6.43733 0.550783 4.51689V1.54158C0.550783 1.27855 0.655272 1.02628 0.841265 0.840288C1.02726 0.654295 1.27952 0.549805 1.54255 0.549805H12.452C12.715 0.549805 12.9673 0.654295 13.1533 0.840288C13.3393 1.02628 13.4438 1.27855 13.4438 1.54158V4.51689C13.4449 6.43733 12.8635 8.31294 11.7763 9.89598C10.689 11.4791 9.14718 12.695 7.35432 13.3834Z" stroke="black" stroke-linecap="round" stroke-linejoin="round"/>
<path d="M10 4L6 8.5L4 7" stroke="black" stroke-linecap="round" stroke-linejoin="round"/>
</g>
<defs>
<clipPath id="clip0_2323_13270">
<rect width="14" height="14" fill="white"/>
</clipPath>
</defs>
</svg>
