<svg width="14" height="14" viewBox="0 0 14 14" fill="none" xmlns="http://www.w3.org/2000/svg">
<g clip-path="url(#clip0_2323_13291)">
<path d="M13.4507 13.448H1.04875C0.950816 13.4475 0.855213 13.418 0.773994 13.3633C0.692776 13.3085 0.629576 13.231 0.59236 13.1404C0.551836 13.051 0.540569 12.951 0.560166 12.8548C0.579763 12.7586 0.629223 12.6711 0.701498 12.6046L5.95003 7.34612C6.04093 7.25339 6.09184 7.12871 6.09184 6.99886C6.09184 6.86901 6.04093 6.74434 5.95003 6.65161L0.701498 1.39315C0.629223 1.3267 0.579763 1.23914 0.560166 1.14294C0.540569 1.04674 0.551836 0.946799 0.59236 0.857375C0.629576 0.766781 0.692776 0.689231 0.773994 0.634496C0.855213 0.579762 0.950816 0.550294 1.04875 0.549805H13.4507" stroke="black" stroke-linecap="round" stroke-linejoin="round"/>
</g>
<defs>
<clipPath id="clip0_2323_13291">
<rect width="14" height="14" fill="white"/>
</clipPath>
</defs>
</svg>
