<svg width="14" height="14" viewBox="0 0 14 14" fill="none" xmlns="http://www.w3.org/2000/svg">
<g clip-path="url(#clip0_2323_13294)">
<path d="M12.8829 6.51118C12.8834 5.50295 12.6249 4.51149 12.1321 3.63191C11.6393 2.75232 10.9287 2.01413 10.0686 1.48815C9.20844 0.962167 8.22755 0.666039 7.22003 0.628175C6.21252 0.59031 5.21216 0.811979 4.31495 1.27192C3.41774 1.73186 2.65378 2.41463 2.09634 3.25474C1.5389 4.09485 1.2067 5.06411 1.13159 6.06954C1.05648 7.07497 1.241 8.08283 1.66743 8.99644C2.09387 9.91004 2.74792 10.6988 3.56683 11.2869V12.395C3.56683 12.6551 3.67015 12.9045 3.85406 13.0884C4.03796 13.2723 4.28739 13.3757 4.54747 13.3757H9.45065C9.71074 13.3757 9.96016 13.2723 10.144 13.0884C10.3279 12.9045 10.4313 12.6551 10.4313 12.395V11.2869C11.1894 10.7424 11.8072 10.0253 12.2334 9.19491C12.6597 8.36451 12.8823 7.4446 12.8829 6.51118Z" stroke="black" stroke-linecap="round" stroke-linejoin="round"/>
<path d="M6.01758 11.4141V13.3753" stroke="black" stroke-linecap="round" stroke-linejoin="round"/>
<path d="M7.98047 11.4141V13.3753" stroke="black" stroke-linecap="round" stroke-linejoin="round"/>
<path d="M4.79241 8.47153C5.46951 8.47153 6.01841 7.92263 6.01841 7.24553C6.01841 6.56843 5.46951 6.01953 4.79241 6.01953C4.11531 6.01953 3.56641 6.56843 3.56641 7.24553C3.56641 7.92263 4.11531 8.47153 4.79241 8.47153Z" stroke="black" stroke-linecap="round" stroke-linejoin="round"/>
<path d="M9.20647 8.47153C9.88357 8.47153 10.4325 7.92263 10.4325 7.24553C10.4325 6.56843 9.88357 6.01953 9.20647 6.01953C8.52937 6.01953 7.98047 6.56843 7.98047 7.24553C7.98047 7.92263 8.52937 8.47153 9.20647 8.47153Z" stroke="black" stroke-linecap="round" stroke-linejoin="round"/>
</g>
<defs>
<clipPath id="clip0_2323_13294">
<rect width="14" height="14" fill="white"/>
</clipPath>
</defs>
</svg>
