<svg width="14" height="14" viewBox="0 0 14 14" fill="none" xmlns="http://www.w3.org/2000/svg">
<g clip-path="url(#clip0_2323_13325)">
<path d="M13.5 6.07101V6.53529C13.5 10.1251 10.5899 13.0353 7 13.0353H6.53572C3.20229 13.0353 0.5 10.333 0.5 6.99958V6.3398C0.5 3.37075 2.90689 0.963867 5.87594 0.963867C8.54809 0.963867 10.7143 3.13006 10.7143 5.80221V6.24958C10.7143 8.45871 8.92343 10.2495 6.71429 10.2495H6.53571C4.74079 10.2495 3.28571 8.7945 3.28571 6.99958V6.53529C3.28571 4.99679 4.53292 3.74958 6.07143 3.74958C7.0971 3.74958 7.92857 4.58105 7.92857 5.60672V5.87203C7.92857 6.75117 7.21588 7.46386 6.33673 7.46386H6.07143" stroke="black" stroke-linecap="round" stroke-linejoin="round"/>
</g>
<defs>
<clipPath id="clip0_2323_13325">
<rect width="14" height="14" fill="white"/>
</clipPath>
</defs>
</svg>
