<svg width="14" height="14" viewBox="0 0 14 14" fill="none" xmlns="http://www.w3.org/2000/svg">
<g clip-path="url(#clip0_2323_13418)">
<path d="M0.71934 9.39123L4.60934 13.2812C4.74997 13.4216 4.94059 13.5005 5.13934 13.5005C5.33809 13.5005 5.52872 13.4216 5.66934 13.2812L13.3893 5.56123C13.4281 5.52415 13.4581 5.47886 13.4771 5.42868C13.4962 5.37851 13.5037 5.32471 13.4993 5.27123L12.9093 1.44123C12.9045 1.34996 12.8661 1.26371 12.8015 1.19909C12.7368 1.13446 12.6506 1.09604 12.5593 1.09123L8.72934 0.501234C8.67586 0.496795 8.62206 0.504368 8.57189 0.523401C8.52171 0.542433 8.47642 0.572443 8.43934 0.611234L0.71934 8.33123C0.57889 8.47185 0.5 8.66248 0.5 8.86123C0.5 9.05998 0.57889 9.2506 0.71934 9.39123Z" stroke="black" stroke-linecap="round" stroke-linejoin="round"/>
<path d="M9.88867 4.61133C9.61253 4.61133 9.38867 4.38747 9.38867 4.11133C9.38867 3.83519 9.61253 3.61133 9.88867 3.61133C10.1648 3.61133 10.3886 3.83519 10.3886 4.11133C10.3886 4.38747 10.1648 4.61133 9.88867 4.61133Z" stroke="black" stroke-linecap="round" stroke-linejoin="round"/>
</g>
<defs>
<clipPath id="clip0_2323_13418">
<rect width="14" height="14" fill="white"/>
</clipPath>
</defs>
</svg>
