<svg width="14" height="14" viewBox="0 0 14 14" fill="none" xmlns="http://www.w3.org/2000/svg">
<path d="M6.14989 0.555038C6.08959 0.519019 6.02066 0.5 5.95042 0.5C5.88018 0.5 5.81126 0.519019 5.75096 0.555038C5.70122 0.594446 5.66766 0.650724 5.65663 0.713216C5.64561 0.775707 5.65788 0.840073 5.69112 0.894125C6.91782 3.0184 7.17712 5.91061 5.50163 7.50631C4.85699 6.96459 4.34521 6.28222 4.00566 5.51169C3.38606 5.85581 2.87257 6.36309 2.52093 6.97846C2.16929 7.59383 1.99294 8.29376 2.01103 9.00228C2.03633 9.62688 2.1863 10.2401 2.45212 10.8059C2.71794 11.3717 3.09424 11.8785 3.55888 12.2967C4.02352 12.7149 4.56711 13.0359 5.15766 13.2409C5.74822 13.4458 6.3738 13.5306 6.9976 13.4902C10.209 13.4902 11.8745 11.4956 11.9842 9.00228C12.1139 6.01034 9.98954 2.33026 6.14989 0.555038Z" stroke="black" stroke-linecap="round" stroke-linejoin="round"/>
</svg>
