<svg width="14" height="14" viewBox="0 0 14 14" fill="none" xmlns="http://www.w3.org/2000/svg">
<g clip-path="url(#clip0_2323_13453)">
<path d="M6.95027 7.57332L5.99377 3.29093C5.86292 2.70511 6.18667 2.11306 6.75049 1.9071C7.42884 1.6593 8.17037 2.06478 8.3278 2.76962L9.21588 6.74569L9.48221 6.6484C10.5945 6.24207 11.8256 6.81438 12.232 7.92668L13.1587 10.4637" stroke="black" stroke-linecap="round" stroke-linejoin="round"/>
<path d="M6.94973 7.58105L5.38048 4.84123C5.0857 4.32654 4.46299 4.09909 3.90588 4.30261C3.21541 4.55484 2.90411 5.35664 3.24348 6.00871L5.12979 9.63306L4.76904 9.84747C3.70284 10.4812 3.64089 12.0021 4.65201 12.7204L4.89365 12.8921L5.45928 13.2944" stroke="black" stroke-linecap="round" stroke-linejoin="round"/>
<path d="M1.75 0.5L0.5 1.75L1.75 3" stroke="black" stroke-linecap="round" stroke-linejoin="round"/>
<path d="M0.5 1.75H3.5" stroke="black" stroke-linecap="round" stroke-linejoin="round"/>
<path d="M12.25 0.5L13.5 1.75L12.25 3" stroke="black" stroke-linecap="round" stroke-linejoin="round"/>
<path d="M13.5 1.75H10.5" stroke="black" stroke-linecap="round" stroke-linejoin="round"/>
</g>
<defs>
<clipPath id="clip0_2323_13453">
<rect width="14" height="14" fill="white"/>
</clipPath>
</defs>
</svg>
