<svg width="14" height="14" viewBox="0 0 14 14" fill="none" xmlns="http://www.w3.org/2000/svg">
<path d="M2.26278 5.98176C2.20331 5.72612 2.17188 5.45972 2.17188 5.18598C2.17188 3.25381 3.7382 1.68748 5.67037 1.68748C5.90215 1.68748 6.12868 1.71002 6.34786 1.75303C6.98962 0.987065 7.95331 0.5 9.03076 0.5C10.9629 0.5 12.5292 2.06633 12.5292 3.9985C12.5292 4.27224 12.4978 4.53864 12.4383 4.79429" stroke="black" stroke-linecap="round" stroke-linejoin="round"/>
<path d="M7.3125 8.25801L7.92805 3.56768C8.01226 2.92605 8.5591 2.44629 9.20623 2.44629C9.98483 2.44629 10.5857 3.1312 10.4844 3.90318L9.9129 8.25801H10.386C11.5702 8.25801 12.5302 9.21799 12.5302 10.4022V13.4815" stroke="black" stroke-linecap="round" stroke-linejoin="round"/>
<path d="M7.30864 8.26615L6.73307 4.91121C6.62495 4.28098 6.07851 3.82031 5.43908 3.82031C4.64659 3.82031 4.03474 4.51709 4.13719 5.30293L4.70663 9.67086L4.05976 9.7926C2.84085 10.022 2.26079 11.4293 2.96405 12.451L3.26193 12.8837L3.68589 13.5004" stroke="black" stroke-linecap="round" stroke-linejoin="round"/>
</svg>
