<svg width="14" height="14" viewBox="0 0 14 14" fill="none" xmlns="http://www.w3.org/2000/svg">
<g clip-path="url(#clip0_2323_13518)">
<path d="M10.4382 8.00041C9.54899 8.00041 8.82812 7.27955 8.82812 6.39034C8.82812 5.50112 9.54899 4.78027 10.4382 4.78027C11.3274 4.78027 12.0483 5.50112 12.0483 6.39034C12.0483 7.27955 11.3274 8.00041 10.4382 8.00041Z" stroke="black" stroke-linecap="round" stroke-linejoin="round"/>
<path d="M8.09961 10.4856C8.3214 10.2512 8.57805 10.0505 8.86164 9.89115C9.34325 9.62062 9.88635 9.47852 10.4387 9.47852C10.9911 9.47852 11.5342 9.62062 12.0158 9.89115C12.2241 10.0082 12.4179 10.1475 12.594 10.3062" stroke="black" stroke-linecap="round" stroke-linejoin="round"/>
<path d="M5.22955 7.48352C4.12765 7.48352 3.23438 6.59024 3.23438 5.48834C3.23438 4.38643 4.12765 3.49316 5.22955 3.49316C6.33146 3.49316 7.22474 4.38643 7.22474 5.48834C7.22474 6.59024 6.33146 7.48352 5.22955 7.48352Z" stroke="black" stroke-linecap="round" stroke-linejoin="round"/>
<path d="M8.96655 13.1811C8.86704 11.9894 8.57009 11.2058 8.40728 10.9299C8.06066 10.3406 7.57351 9.85349 6.99265 9.51551C6.4118 9.17752 5.75676 9 5.09053 9C4.4243 9 3.76929 9.17752 3.18843 9.51551C2.72462 9.78539 2.32055 10.1503 2.00006 10.5865L1.79688 10.8906" stroke="black" stroke-linecap="round" stroke-linejoin="round"/>
<path d="M7 13.5C3.41015 13.5 0.5 10.5899 0.5 7C0.5 3.41015 3.41015 0.5 7 0.5C10.5899 0.5 13.5 3.41015 13.5 7C13.5 10.5899 10.5899 13.5 7 13.5Z" stroke="black" stroke-linecap="round" stroke-linejoin="round"/>
</g>
<defs>
<clipPath id="clip0_2323_13518">
<rect width="14" height="14" fill="white"/>
</clipPath>
</defs>
</svg>
