<svg width="14" height="14" viewBox="0 0 14 14" fill="none" xmlns="http://www.w3.org/2000/svg">
<path d="M12.642 2.26562H1.358C0.88414 2.26562 0.5 2.64976 0.5 3.12363V10.8756C0.5 11.3495 0.88414 11.7336 1.358 11.7336H12.642C13.1159 11.7336 13.5 11.3495 13.5 10.8756V3.12363C13.5 2.64976 13.1159 2.26562 12.642 2.26562Z" stroke="black" stroke-linecap="round" stroke-linejoin="round"/>
<path d="M9.35938 5.87891H11.3462" stroke="black" stroke-linecap="round" stroke-linejoin="round"/>
<path d="M9.35938 7.84766H11.3462" stroke="black" stroke-linecap="round" stroke-linejoin="round"/>
<path d="M3.50781 6.20721C3.50781 7.1134 4.24242 7.84801 5.14861 7.84801C5.3777 7.84801 5.59582 7.80106 5.79388 7.71626C6.37927 7.46561 6.7894 6.88431 6.7894 6.20721C6.7894 5.30102 6.0548 4.56641 5.14861 4.56641C4.24242 4.56641 3.50781 5.30102 3.50781 6.20721Z" stroke="black" stroke-linecap="round" stroke-linejoin="round"/>
<path d="M2.6543 9.47254C2.91502 8.97664 3.28145 8.56679 3.71836 8.2824C4.15527 7.998 4.64797 7.84863 5.14909 7.84863C5.65022 7.84863 6.14292 7.998 6.57983 8.2824C7.01674 8.56679 7.38317 8.97664 7.64389 9.47254" stroke="black" stroke-linecap="round" stroke-linejoin="round"/>
</svg>
