<svg width="14" height="14" viewBox="0 0 14 14" fill="none" xmlns="http://www.w3.org/2000/svg">
<g clip-path="url(#clip0_2323_13555)">
<path d="M2.04102 13.4479V10.9678H4.52117" stroke="black" stroke-linecap="round" stroke-linejoin="round"/>
<path d="M13.3404 5.81445C13.9575 9.09614 11.9493 12.3496 8.67045 13.2281C6.16098 13.9005 3.60048 12.996 2.04102 11.122" stroke="black" stroke-linecap="round" stroke-linejoin="round"/>
<path d="M0.661877 8.18478C0.0447739 4.9031 2.05302 1.64968 5.33181 0.771129C7.84111 0.0987638 10.4014 1.0031 11.9609 2.87684" stroke="black" stroke-linecap="round" stroke-linejoin="round"/>
<path d="M11.9607 0.551758V3.03191H9.48047" stroke="black" stroke-linecap="round" stroke-linejoin="round"/>
<path d="M7 6.5C7.69036 6.5 8.25 5.94036 8.25 5.25C8.25 4.55964 7.69036 4 7 4C6.30964 4 5.75 4.55964 5.75 5.25C5.75 5.94036 6.30964 6.5 7 6.5Z" stroke="black"/>
<path d="M4.70898 9.5C5.09476 8.61705 5.9758 8 7.00096 8C8.02612 8 8.90716 8.61705 9.29293 9.5" stroke="black" stroke-linecap="round"/>
</g>
<defs>
<clipPath id="clip0_2323_13555">
<rect width="14" height="14" fill="white"/>
</clipPath>
</defs>
</svg>
