<svg width="14" height="14" viewBox="0 0 14 14" fill="none" xmlns="http://www.w3.org/2000/svg">
<path d="M10.1505 8.06375L9.30949 8.69941L8.67383 7.8584" stroke="black" stroke-linecap="round" stroke-linejoin="round"/>
<path d="M9.26298 8.63553C9.40182 8.36878 9.49602 8.07305 9.53457 7.75695C9.70701 6.34296 8.70054 5.05691 7.28655 4.88447C6.83903 4.82989 6.40432 4.8934 6.01367 5.05056" stroke="black" stroke-linecap="round" stroke-linejoin="round"/>
<path d="M3.79492 6.86515L4.63592 6.22949L5.27158 7.0705" stroke="black" stroke-linecap="round" stroke-linejoin="round"/>
<path d="M4.68146 6.29297C4.54261 6.55972 4.44841 6.85545 4.40986 7.17155C4.23742 8.58554 5.24389 9.87159 6.65788 10.0441C7.1054 10.0986 7.54012 10.0351 7.93076 9.87794" stroke="black" stroke-linecap="round" stroke-linejoin="round"/>
<path d="M13.5 4.5C13.5 4.23478 13.3946 3.98043 13.2071 3.79289C13.0196 3.60536 12.7652 3.5 12.5 3.5H10.5L9 1.5H5L3.5 3.5H1.5C1.23478 3.5 0.98043 3.60536 0.792893 3.79289C0.605357 3.98043 0.5 4.23478 0.5 4.5V11.5C0.5 11.7652 0.605357 12.0196 0.792893 12.2071C0.98043 12.3946 1.23478 12.5 1.5 12.5H12.5C12.7652 12.5 13.0196 12.3946 13.2071 12.2071C13.3946 12.0196 13.5 11.7652 13.5 11.5V4.5Z" stroke="black" stroke-linecap="round" stroke-linejoin="round"/>
</svg>
