<svg width="14" height="14" viewBox="0 0 14 14" fill="none" xmlns="http://www.w3.org/2000/svg">
<path d="M13.2294 6.2463C13.3952 6.45302 13.487 6.72159 13.487 7.00006C13.487 7.27853 13.3952 7.5471 13.2294 7.75382C12.1794 9.02509 9.78936 11.5001 6.99936 11.5001C4.20936 11.5001 1.81936 9.02509 0.769358 7.75382C0.603518 7.5471 0.511719 7.27853 0.511719 7.00006C0.511719 6.72159 0.603518 6.45302 0.769358 6.2463C1.81936 4.97503 4.20936 2.5 6.99936 2.5C9.78936 2.5 12.1794 4.97503 13.2294 6.2463Z" stroke="black" stroke-linecap="round" stroke-linejoin="round"/>
<path d="M7 9C8.10457 9 9 8.10457 9 7C9 5.89543 8.10457 5 7 5C5.89543 5 5 5.89543 5 7C5 8.10457 5.89543 9 7 9Z" stroke="black" stroke-linecap="round" stroke-linejoin="round"/>
</svg>
