<svg width="14" height="14" viewBox="0 0 14 14" fill="none" xmlns="http://www.w3.org/2000/svg">
<g clip-path="url(#clip0_2323_13603)">
<path d="M7.89088 1.0499C7.80696 0.886097 7.67946 0.748632 7.52243 0.652642C7.3654 0.556651 7.18492 0.505859 7.00088 0.505859C6.81683 0.505859 6.63635 0.556651 6.47932 0.652642C6.32229 0.748632 6.19479 0.886097 6.11088 1.0499L0.61088 12.0499C0.53417 12.2021 0.497648 12.3714 0.504782 12.5418C0.511916 12.7121 0.562471 12.8777 0.651644 13.023C0.740816 13.1683 0.865646 13.2884 1.01428 13.3718C1.16291 13.4553 1.33041 13.4994 1.50088 13.4999H12.5009C12.6714 13.4994 12.8389 13.4553 12.9875 13.3718C13.1362 13.2884 13.261 13.1683 13.3502 13.023C13.4393 12.8777 13.4899 12.7121 13.497 12.5418C13.5042 12.3714 13.4676 12.2021 13.3909 12.0499L7.89088 1.0499Z" stroke="black" stroke-linecap="round" stroke-linejoin="round"/>
<path d="M7 5V8.25" stroke="black" stroke-linecap="round" stroke-linejoin="round"/>
<path d="M7 11C6.86193 11 6.75 10.8881 6.75 10.75C6.75 10.6119 6.86193 10.5 7 10.5" stroke="black" stroke-linecap="round" stroke-linejoin="round"/>
<path d="M7 11C7.13807 11 7.25 10.8881 7.25 10.75C7.25 10.6119 7.13807 10.5 7 10.5" stroke="black" stroke-linecap="round" stroke-linejoin="round"/>
</g>
<defs>
<clipPath id="clip0_2323_13603">
<rect width="14" height="14" fill="white"/>
</clipPath>
</defs>
</svg>
