<svg width="14" height="14" viewBox="0 0 14 14" fill="none" xmlns="http://www.w3.org/2000/svg">
<g clip-path="url(#clip0_2323_13617)">
<path d="M13.0439 3.93782C13.0073 3.37229 12.8094 2.8556 12.498 2.42969" stroke="black" stroke-linecap="round" stroke-linejoin="round"/>
<path d="M3.41797 1.56439C3.73242 1.09291 4.16213 0.744381 4.64479 0.53125" stroke="black" stroke-linecap="round" stroke-linejoin="round"/>
<path d="M3.16893 12.0101L2.82306 11.6166C2.34306 11.0704 1.96634 10.4415 1.71126 9.76062L1.02393 7.92582C0.853744 7.47151 0.997402 6.95929 1.37902 6.65974C1.95141 6.21044 2.7939 6.42215 3.0859 7.08866L3.66638 8.41367C4.10137 8.53023 5.09873 8.98396 5.60823 9.86643" stroke="black" stroke-linecap="round" stroke-linejoin="round"/>
<path d="M3.66602 8.41619L5.12297 2.97881C5.2839 2.37821 5.90124 2.02179 6.50183 2.18272C7.10243 2.34365 7.45885 2.96099 7.29792 3.56158L6.42376 6.82402L7.64759 2.25661C7.80852 1.65601 8.42586 1.29959 9.02646 1.46052C9.62705 1.62145 9.98347 2.23879 9.82254 2.83939L8.48216 7.84179L9.23977 5.01434C9.4007 4.41375 10.018 4.05733 10.6186 4.21826C11.2192 4.37918 11.5756 4.99652 11.4147 5.59712L9.70597 11.9742C9.56868 12.4866 9.23348 12.9234 8.77412 13.1887L8.38846 13.4113" stroke="black" stroke-linecap="round" stroke-linejoin="round"/>
</g>
<defs>
<clipPath id="clip0_2323_13617">
<rect width="14" height="14" fill="white"/>
</clipPath>
</defs>
</svg>
