<svg width="14" height="14" viewBox="0 0 14 14" fill="none" xmlns="http://www.w3.org/2000/svg">
<g clip-path="url(#clip0_2323_13633)">
<path d="M13.4094 3.59728C13.3901 3.49249 13.349 3.39293 13.2887 3.30506C13.2284 3.2172 13.1503 3.143 13.0594 3.08728L11.0594 5.08728C10.9661 5.18406 10.8543 5.26105 10.7306 5.31363C10.6069 5.36621 10.4738 5.39331 10.3394 5.39331C10.205 5.39331 10.072 5.36621 9.94822 5.31363C9.82451 5.26105 9.71267 5.18406 9.61939 5.08728L8.85939 4.40728C8.67616 4.22035 8.57353 3.96903 8.57353 3.70728C8.57353 3.44553 8.67616 3.19421 8.85939 3.00728L10.8594 1.00728C10.8158 0.904822 10.7502 0.813196 10.6673 0.73889C10.5843 0.664585 10.4861 0.609415 10.3794 0.577285C9.68156 0.438125 8.95868 0.497693 8.29305 0.749208C7.62742 1.00072 7.04578 1.43407 6.61435 1.99993C6.18292 2.56579 5.91904 3.24142 5.85275 3.94989C5.79065 4.61355 5.90428 5.28105 6.18109 5.88569L0.814379 11.2524C0.41821 11.6486 0.42478 12.2929 0.828946 12.6809L1.38973 13.2193C1.78087 13.5948 2.40002 13.5902 2.78551 13.2088L8.21384 7.83924C8.80096 8.08171 9.4405 8.17394 10.0743 8.106C10.775 8.03088 11.4412 7.76287 11.9987 7.33177C12.5563 6.90066 12.9833 6.32337 13.2323 5.66407C13.4814 5.00478 13.5427 4.28933 13.4094 3.59728Z" stroke="black" stroke-linecap="round" stroke-linejoin="round"/>
</g>
<defs>
<clipPath id="clip0_2323_13633">
<rect width="14" height="14" fill="white"/>
</clipPath>
</defs>
</svg>
